
<svg xmlns="http://www.w3.org/2000/svg">
  <path d="M40.363 24.224V.575h5.614a5.413 5.413 0 0 1 4.149 1.647 5.678 5.678 0 0 1 1.437 3.993v3.436a5.488 5.488 0 0 1-1.634 3.993 5.344 5.344 0 0 1-3.955 1.66h-2.058v8.92Zm7.151-13.049a1.994 1.994 0 0 0 .59-1.446V6.275a2.051 2.051 0 0 0-.551-1.5 1.98 1.98 0 0 0-1.49-.557h-2.147v7.557h2.147a1.945 1.945 0 0 0 1.446-.6Zm6.007 13.05L57.527.575h4.914l3.955 23.649h-3.733l-.843-5.433h-3.723l-.869 5.433Zm6.442-18.23-1.323 9.322h2.645ZM70.8 24.225V.575h5.614a5.413 5.413 0 0 1 4.149 1.647 5.678 5.678 0 0 1 1.44 3.993v3.436a5.488 5.488 0 0 1-1.634 3.993 5.344 5.344 0 0 1-3.955 1.66h-2.061v8.92Zm7.151-13.05a1.994 1.994 0 0 0 .59-1.446V6.275a2.051 2.051 0 0 0-.551-1.5 1.98 1.98 0 0 0-1.485-.564h-2.152v7.564h2.152a1.945 1.945 0 0 0 1.446-.6Zm8.3 13.05V.575h10.141v3.566h-6.586v6.47h4.81v3.579h-4.81v6.47h6.587v3.566Zm14 0V.575h5.612a5.4 5.4 0 0 1 4.369 1.647 5.949 5.949 0 0 1 1.237 3.993v3.436a5.5 5.5 0 0 1-1.906 4.24l2.645 10.334h-3.851l-2.178-8.933q-.156.013-.324.013h-2.049v8.92Zm7.153-13.05a1.994 1.994 0 0 0 .59-1.446V6.275a1.811 1.811 0 0 0-2.031-2.057h-2.157v7.557h2.157a1.945 1.945 0 0 0 1.446-.6Zm9.054 13.05v-3.54l6.573-16.544h-6.573V.575h10.4v3.566l-6.562 16.544h6.561v3.54ZM39.793 36.337v-5.719h.629v5.2h2.571v.52Zm4.562-.134a1.868 1.868 0 0 1-.7-.746 2.287 2.287 0 0 1-.252-1.082 2.319 2.319 0 0 1 .247-1.082 1.849 1.849 0 0 1 .692-.744 1.887 1.887 0 0 1 1-.268 1.8 1.8 0 0 1 .956.26 1.838 1.838 0 0 1 .673.708 2.068 2.068 0 0 1 .243 1q0 .159-.008.243h-3.229a1.7 1.7 0 0 0 .394 1.031 1.216 1.216 0 0 0 .982.426 1.668 1.668 0 0 0 .834-.189 1.45 1.45 0 0 0 .532-.524l.453.3a1.968 1.968 0 0 1-.73.683 2.206 2.206 0 0 1-1.073.247 1.924 1.924 0 0 1-1.015-.268Zm1.878-3.1a1.249 1.249 0 0 0-.889-.306 1.209 1.209 0 0 0-.893.348 1.592 1.592 0 0 0-.44.876h2.633a1.491 1.491 0 0 0-.411-.917Zm2.524 3.1a1.869 1.869 0 0 1-.7-.746 2.305 2.305 0 0 1-.252-1.09 2.293 2.293 0 0 1 .252-1.078 1.856 1.856 0 0 1 .687-.74 1.887 1.887 0 0 1 1-.268 1.649 1.649 0 0 1 .784.189 1.705 1.705 0 0 1 .6.532v-.59h.57v3.925h-.57v-.579a1.749 1.749 0 0 1-.6.524 1.608 1.608 0 0 1-.771.189 1.908 1.908 0 0 1-1.006-.268Zm1.706-.454a1.356 1.356 0 0 0 .491-.562 1.829 1.829 0 0 0 .176-.813 1.829 1.829 0 0 0-.176-.813 1.356 1.356 0 0 0-.491-.562 1.3 1.3 0 0 0-.717-.2 1.266 1.266 0 0 0-.7.2 1.373 1.373 0 0 0-.486.558 1.8 1.8 0 0 0-.176.809 1.849 1.849 0 0 0 .176.822 1.367 1.367 0 0 0 .486.562 1.266 1.266 0 0 0 .7.2 1.3 1.3 0 0 0 .717-.2Zm3 .453a1.869 1.869 0 0 1-.7-.746 2.305 2.305 0 0 1-.252-1.09 2.293 2.293 0 0 1 .247-1.078 1.856 1.856 0 0 1 .688-.742 1.887 1.887 0 0 1 1-.268 1.649 1.649 0 0 1 .784.189 1.705 1.705 0 0 1 .6.532v-2.75h.57v6.088h-.57v-.579a1.749 1.749 0 0 1-.6.524 1.608 1.608 0 0 1-.771.189 1.908 1.908 0 0 1-1.006-.268Zm1.705-.453a1.356 1.356 0 0 0 .491-.562 1.829 1.829 0 0 0 .176-.813 1.829 1.829 0 0 0-.176-.813 1.356 1.356 0 0 0-.491-.562 1.3 1.3 0 0 0-.717-.2 1.266 1.266 0 0 0-.7.2 1.373 1.373 0 0 0-.486.558 1.8 1.8 0 0 0-.176.809 1.849 1.849 0 0 0 .176.822 1.367 1.367 0 0 0 .486.562 1.266 1.266 0 0 0 .7.2 1.3 1.3 0 0 0 .717-.2Zm2.565-4.234a.452.452 0 0 1-.13-.327.428.428 0 0 1 .13-.314.461.461 0 0 1 .641 0 .431.431 0 0 1 .134.323.435.435 0 0 1-.134.319.45.45 0 0 1-.641 0Zm.038 4.822v-3.925h.57v3.925Zm1.937 0v-3.925h.57v.654a1.5 1.5 0 0 1 .532-.583 1.425 1.425 0 0 1 .767-.205 1.725 1.725 0 0 1 .759.168 1.316 1.316 0 0 1 .553.495 1.42 1.42 0 0 1 .205.771v2.625h-.57v-2.373q0-1.166-1.04-1.166a1.035 1.035 0 0 0-.906.428 1.956 1.956 0 0 0-.3 1.149v1.962Zm4.8 1.677v-.52h1.627a1.057 1.057 0 0 0 .834-.369 1.374 1.374 0 0 0 .323-.939v-.428a1.749 1.749 0 0 1-.6.524 1.608 1.608 0 0 1-.771.189 1.908 1.908 0 0 1-1.006-.268 1.869 1.869 0 0 1-.7-.746 2.305 2.305 0 0 1-.252-1.09 2.293 2.293 0 0 1 .247-1.078 1.856 1.856 0 0 1 .693-.74 1.887 1.887 0 0 1 1-.268 1.649 1.649 0 0 1 .784.189 1.705 1.705 0 0 1 .6.532v-.59h.57v3.774a2 2 0 0 1-.218.943 1.614 1.614 0 0 1-.612.65 1.719 1.719 0 0 1-.9.235Zm2.114-2.265a1.356 1.356 0 0 0 .491-.562 1.829 1.829 0 0 0 .176-.813 1.829 1.829 0 0 0-.176-.813 1.356 1.356 0 0 0-.491-.562 1.3 1.3 0 0 0-.717-.2 1.266 1.266 0 0 0-.7.2 1.373 1.373 0 0 0-.486.558 1.8 1.8 0 0 0-.176.809 1.849 1.849 0 0 0 .176.822 1.367 1.367 0 0 0 .486.562 1.266 1.266 0 0 0 .7.2 1.3 1.3 0 0 0 .717-.2Zm4.306.587v-5.718h1.912a1.649 1.649 0 0 1 1.233.47 1.775 1.775 0 0 1 .461 1.3 1.719 1.719 0 0 1-.482 1.291 1.754 1.754 0 0 1-1.279.47h-1.216v2.188Zm2.683-3.023a1.312 1.312 0 0 0 .293-.927 1.328 1.328 0 0 0-.293-.931 1.105 1.105 0 0 0-.855-.319h-1.2v2.49h1.2a1.113 1.113 0 0 0 .855-.314Zm2.365 2.889a1.869 1.869 0 0 1-.7-.746 2.305 2.305 0 0 1-.252-1.09 2.293 2.293 0 0 1 .247-1.078 1.856 1.856 0 0 1 .692-.739 1.887 1.887 0 0 1 1-.268 1.649 1.649 0 0 1 .784.189 1.705 1.705 0 0 1 .6.532v-.59h.57v3.925h-.57v-.579a1.749 1.749 0 0 1-.6.524 1.608 1.608 0 0 1-.771.189 1.908 1.908 0 0 1-1.006-.268Zm1.706-.453a1.356 1.356 0 0 0 .491-.562 1.829 1.829 0 0 0 .176-.813 1.829 1.829 0 0 0-.176-.813 1.356 1.356 0 0 0-.491-.562 1.3 1.3 0 0 0-.717-.2 1.266 1.266 0 0 0-.7.2 1.373 1.373 0 0 0-.486.558 1.8 1.8 0 0 0-.176.809 1.849 1.849 0 0 0 .176.822 1.367 1.367 0 0 0 .486.562 1.266 1.266 0 0 0 .7.2 1.3 1.3 0 0 0 .717-.2Zm2.3 2.264v-5.6h.57v.579a1.749 1.749 0 0 1 .6-.524 1.608 1.608 0 0 1 .771-.189 1.908 1.908 0 0 1 1.006.268 1.869 1.869 0 0 1 .7.746 2.305 2.305 0 0 1 .252 1.09 2.293 2.293 0 0 1-.247 1.078 1.855 1.855 0 0 1-.688.742 1.887 1.887 0 0 1-1 .268 1.649 1.649 0 0 1-.784-.189 1.705 1.705 0 0 1-.6-.532v2.264Zm2.66-2.264a1.373 1.373 0 0 0 .486-.558 1.8 1.8 0 0 0 .176-.809 1.849 1.849 0 0 0-.176-.822 1.367 1.367 0 0 0-.486-.562 1.266 1.266 0 0 0-.7-.2 1.3 1.3 0 0 0-.717.2 1.356 1.356 0 0 0-.491.562 1.829 1.829 0 0 0-.176.813 1.829 1.829 0 0 0 .176.813 1.356 1.356 0 0 0 .491.562 1.3 1.3 0 0 0 .717.2 1.266 1.266 0 0 0 .7-.2Zm2.742.453a1.869 1.869 0 0 1-.7-.746 2.287 2.287 0 0 1-.252-1.082 2.319 2.319 0 0 1 .247-1.082 1.849 1.849 0 0 1 .688-.746 1.887 1.887 0 0 1 1-.268 1.8 1.8 0 0 1 .956.26 1.838 1.838 0 0 1 .677.711 2.068 2.068 0 0 1 .243 1q0 .159-.008.243h-3.228a1.7 1.7 0 0 0 .394 1.031 1.216 1.216 0 0 0 .981.428 1.668 1.668 0 0 0 .834-.189 1.45 1.45 0 0 0 .532-.524l.453.3a1.968 1.968 0 0 1-.73.683 2.206 2.206 0 0 1-1.073.247 1.924 1.924 0 0 1-1.015-.268Zm1.878-3.1a1.249 1.249 0 0 0-.889-.306 1.209 1.209 0 0 0-.893.348 1.592 1.592 0 0 0-.44.876h2.633a1.491 1.491 0 0 0-.411-.918Zm1.82 3.233v-3.923h.57v.788a1.844 1.844 0 0 1 .574-.679 1.336 1.336 0 0 1 .784-.243 1.265 1.265 0 0 1 .386.059v.52a.886.886 0 0 0-.386-.084 1.209 1.209 0 0 0-.671.2 1.428 1.428 0 0 0-.5.583 2.012 2.012 0 0 0-.189.9v1.881Zm5.731-.222a2.258 2.258 0 0 1-.805-1.023 4.1 4.1 0 0 1-.281-1.6A4.306 4.306 0 0 1 94 31.876a2.247 2.247 0 0 1 .78-1.027 2.04 2.04 0 0 1 1.2-.356 2.271 2.271 0 0 1 1.22.314 2.139 2.139 0 0 1 .792.885l-.5.293a1.778 1.778 0 0 0-.629-.709 1.7 1.7 0 0 0-.88-.214 1.33 1.33 0 0 0-1.17.641 3.212 3.212 0 0 0-.42 1.783 3.878 3.878 0 0 0 .193 1.291 1.812 1.812 0 0 0 .553.834 1.3 1.3 0 0 0 .839.289 1.451 1.451 0 0 0 .927-.264 2.472 2.472 0 0 0 .616-.826l.528.319a2.391 2.391 0 0 1-.8 1 2.039 2.039 0 0 1-1.187.344 2.161 2.161 0 0 1-1.245-.356Zm4.759.088a1.862 1.862 0 0 1-.7-.75 2.312 2.312 0 0 1-.252-1.086 2.293 2.293 0 0 1 .247-1.078 1.856 1.856 0 0 1 .688-.742 1.887 1.887 0 0 1 1-.268 1.908 1.908 0 0 1 1.006.268 1.869 1.869 0 0 1 .7.746 2.287 2.287 0 0 1 .252 1.082 2.319 2.319 0 0 1-.247 1.082 1.849 1.849 0 0 1-.688.746 1.887 1.887 0 0 1-1 .268 1.908 1.908 0 0 1-1.006-.268Zm1.707-.452a1.357 1.357 0 0 0 .491-.562 1.829 1.829 0 0 0 .176-.813 1.829 1.829 0 0 0-.176-.813 1.356 1.356 0 0 0-.491-.562 1.3 1.3 0 0 0-.717-.2 1.266 1.266 0 0 0-.7.2 1.373 1.373 0 0 0-.486.558 1.8 1.8 0 0 0-.176.809 1.849 1.849 0 0 0 .176.822 1.367 1.367 0 0 0 .486.562 1.266 1.266 0 0 0 .7.2 1.3 1.3 0 0 0 .717-.2Zm2.042.587v-3.924h.57v.612a1.463 1.463 0 0 1 .491-.553 1.315 1.315 0 0 1 1.43.038 1.2 1.2 0 0 1 .444.658 1.581 1.581 0 0 1 .5-.654 1.211 1.211 0 0 1 .738-.235 1.194 1.194 0 0 1 .906.382 1.471 1.471 0 0 1 .361 1.052v2.625h-.568v-2.373a1.362 1.362 0 0 0-.235-.893.77.77 0 0 0-.612-.273.832.832 0 0 0-.717.356 1.857 1.857 0 0 0-.3.969v2.214h-.57v-2.373a1.362 1.362 0 0 0-.235-.893.77.77 0 0 0-.612-.273.837.837 0 0 0-.767.428 2.228 2.228 0 0 0-.252 1.149v1.962Zm6.465 1.677v-5.6h.57v.579a1.749 1.749 0 0 1 .6-.524 1.608 1.608 0 0 1 .771-.189 1.908 1.908 0 0 1 1.006.268 1.869 1.869 0 0 1 .7.746 2.305 2.305 0 0 1 .252 1.09 2.293 2.293 0 0 1-.247 1.078 1.855 1.855 0 0 1-.688.742 1.887 1.887 0 0 1-1 .268 1.649 1.649 0 0 1-.784-.189 1.705 1.705 0 0 1-.6-.532v2.264Zm2.658-2.264a1.373 1.373 0 0 0 .486-.558 1.8 1.8 0 0 0 .176-.809 1.849 1.849 0 0 0-.176-.822 1.367 1.367 0 0 0-.486-.562 1.266 1.266 0 0 0-.7-.2 1.3 1.3 0 0 0-.717.2 1.356 1.356 0 0 0-.491.562 1.829 1.829 0 0 0-.176.813 1.829 1.829 0 0 0 .176.813 1.356 1.356 0 0 0 .491.562 1.3 1.3 0 0 0 .717.2 1.266 1.266 0 0 0 .7-.2Zm2.742.453a1.869 1.869 0 0 1-.7-.746 2.305 2.305 0 0 1-.252-1.09 2.293 2.293 0 0 1 .247-1.078 1.856 1.856 0 0 1 .692-.739 1.887 1.887 0 0 1 1-.268 1.649 1.649 0 0 1 .784.189 1.705 1.705 0 0 1 .6.532v-.59h.57v3.925h-.57v-.579a1.749 1.749 0 0 1-.6.524 1.608 1.608 0 0 1-.771.189 1.908 1.908 0 0 1-1.006-.268Zm1.707-.453a1.356 1.356 0 0 0 .491-.562 1.829 1.829 0 0 0 .176-.813 1.829 1.829 0 0 0-.176-.813 1.356 1.356 0 0 0-.491-.562 1.3 1.3 0 0 0-.717-.2 1.266 1.266 0 0 0-.7.2 1.373 1.373 0 0 0-.486.558 1.8 1.8 0 0 0-.176.809 1.849 1.849 0 0 0 .176.822 1.367 1.367 0 0 0 .486.562 1.266 1.266 0 0 0 .7.2 1.3 1.3 0 0 0 .717-.2Zm2.293.587v-3.924h.57v.654a1.5 1.5 0 0 1 .532-.583 1.425 1.425 0 0 1 .767-.205 1.725 1.725 0 0 1 .759.168 1.316 1.316 0 0 1 .553.495 1.42 1.42 0 0 1 .205.771v2.625h-.57v-2.373q0-1.166-1.04-1.166a1.035 1.035 0 0 0-.906.428 1.956 1.956 0 0 0-.3 1.149v1.962Zm5.048 1.677.621-1.6-1.61-4h.6l1.3 3.254 1.248-3.255h.537l-2.121 5.6Z M20.032 6.056v27.205a27.175 27.175 0 0 1-7.547 3.135 27.753 27.753 0 0 1-6.783.873A20.588 20.588 0 0 1 0 36.515V9.311a17.972 17.972 0 0 0 1.99.452c.641.109 1.306.189 1.99.238q.84.063 1.717.063a27.781 27.781 0 0 0 6.783-.873 27.183 27.183 0 0 0 7.552-3.135Zm-3.981 6.245q-.252.086-.507.168h.507Z M27.486 0v30.047a30.513 30.513 0 0 1-8.425 3.462 31.293 31.293 0 0 1-7.572.964 23.212 23.212 0 0 1-6.364-.831V3.595a20.246 20.246 0 0 0 2.222.5c.715.12 1.457.209 2.222.263q.937.069 1.917.069a31.325 31.325 0 0 0 7.572-.964A30.522 30.522 0 0 0 27.486 0Z" />
</svg>
