<?xml version="1.0" standalone="no"?>
<!DOCTYPE svg PUBLIC "-//W3C//DTD SVG 1.1//EN" "http://www.w3.org/Graphics/SVG/1.1/DTD/svg11.dtd">
<svg xmlns="http://www.w3.org/2000/svg">
<metadata>Copyright (C) 2023 by original authors @ fontello.com</metadata>
<defs>
<font id="crito-icons" horiz-adv-x="1000" >
<font-face font-family="crito-icons" font-weight="400" font-stretch="normal" units-per-em="1000" ascent="850" descent="-150" />
<missing-glyph horiz-adv-x="1000" />
<glyph glyph-name="right" unicode="&#xe800;" d="M0 347q0 26 18 43t43 17h642l-242 244q-19 18-19 44t19 42q17 19 42 19t44-19l390-390-390-391q-20-18-44-18t-42 18-19 44 19 43l242 242h-642q-25 0-43 18t-18 44z" horiz-adv-x="938" />

<glyph glyph-name="phone" unicode="&#xe811;" d="M990 105a76 76 0 0 0 10-32c0-58-215-223-251-223-2 0-215 3-483 266-263 268-266 481-266 483 0 37 165 251 223 251a76 76 0 0 0 57-32c2-2 145-202 135-256-4-26-22-40-57-70-6-5-20-17-30-26a415 415 0 0 1 23-55 457 457 0 0 1 210-210 415 415 0 0 1 55-23c9 10 21 24 26 29 29 36 44 54 70 58 54 9 254-133 256-135a76 76 0 0 0 22-24z m-244-188a901 901 0 0 1 185 157c-1 1-3 3-6 5a1172 1172 0 0 1-203 119c-5-4-19-21-29-34a336 336 0 0 0-48-50 33 33 0 0 0-25-6 380 380 0 0 0-88 32 524 524 0 0 0-242 242 381 381 0 0 0-32 88 33 33 0 0 0 6 25 335 335 0 0 0 51 48 396 396 0 0 1 33 30 1180 1180 0 0 1-119 202c-2 3-4 5-5 6a902 902 0 0 1-157-185c2-28 25-208 246-433 224-220 404-244 432-246z m-125 554a200 200 0 0 1-141 59v67a267 267 0 0 0 267-267h-67a200 200 0 0 1-59 141z m118 118a367 367 0 0 1-259 108v66a434 434 0 0 0 433-433h-66a367 367 0 0 1-108 259z" horiz-adv-x="1000" />

<glyph glyph-name="message" unicode="&#xe812;" d="M781 482a39 39 0 0 0 53-56z m244-29a39 39 0 0 0 77 1z m-319 397a39 39 0 0 0-1-77z m-544-318l-99 99 54 54 99-99z m54 54a2315 2315 0 0 1 202-189 218 218 0 0 1 133-56v-77a293 293 0 0 0-180 72 2370 2370 0 0 0-209 196z m284 264h103v-77h-103z m103-1000h-103v77h103z m-103 0c-95 0-170 0-229 6a299 299 0 0 0-149 50l45 62a224 224 0 0 1 112-35c54-7 124-7 221-7z m-423 500c0-97 0-167 6-221a224 224 0 0 1 36-112l-62-46a299 299 0 0 0-51 150c-6 59-6 134-6 229z m45-444a295 295 0 0 0-66 65l63 46a218 218 0 0 1 48-48z m981 444c0-95 0-170-7-229a299 299 0 0 0-50-150l-62 46a224 224 0 0 1 36 112c6 54 6 124 6 221z m-500-423c97 0 166 0 220 6a224 224 0 0 1 113 36l45-62a299 299 0 0 0-149-50c-60-7-134-7-229-7z m443 44a295 295 0 0 0-65-65l-45 62a218 218 0 0 1 48 49z m-546 802c-97 0-167 0-221-6a224 224 0 0 1-112-36l-45 63a299 299 0 0 0 149 50c59 6 134 6 229 6z m-333-41a218 218 0 0 1-48-49l-63 46a295 295 0 0 0 66 65z m667-306c-104-100-184-162-283-162v77c64 0 123 39 230 141z m192-76c0 38 0 73-1 103l77 1c1-31 1-66 1-104z m-423 500c37 0 72 0 103 0l-1-77c-31 0-65 0-102 0z m500-141a141 141 0 0 0-141-141v77a64 64 0 0 1 64 64z m-141-141a141 141 0 0 0-141 141h76a64 64 0 0 1 65-64z m-141 141a141 141 0 0 0 141 141v-77a64 64 0 0 1-65-64z m141 141a141 141 0 0 0 141-141h-77a64 64 0 0 1-64 64z m-962-500c0 83 0 150 4 204a385 385 0 0 0 32 140l69-34a311 311 0 0 1-24-111c-4-51-4-115-4-199z m36 344a224 224 0 0 0 20 35l63-46a148 148 0 0 1-14-23z m81-9l-19 19-55-54 20-19z m72-180l27 27m-126 72l27 27m27-747l23 31m-80 25l-31-22m959 22l-31 23m-25-79l-23 31m-792 794l-22 31m-35-88l-31 23m14-52l-34 17" horiz-adv-x="1103" />

<glyph glyph-name="location" unicode="&#xe813;" d="M800 427c0-228-204-419-314-521-15-14-29-26-39-37a66 66 0 0 0-94 0c-10 11-24 23-39 37-110 102-314 293-314 521a433 433 0 0 0 117 299 385 385 0 0 0 566 0 433 433 0 0 0 117-299z m-55 0a355 355 0 0 1-345 364 355 355 0 0 1-345-364c0-202 193-381 296-477 15-14 29-27 40-38a13 13 0 0 1 18 0c11 11 25 24 40 38 103 96 296 275 296 477z m-169 16a182 182 0 0 0-176-186 182 182 0 0 0-176 186 182 182 0 0 0 176 186 182 182 0 0 0 176-186z m-55 0a125 125 0 0 1-121 128 125 125 0 0 1-121-128 125 125 0 0 1 121-128 125 125 0 0 1 121 128z" horiz-adv-x="800" />

<glyph glyph-name="handshake" unicode="&#xe816;" d="M380 568a21 21 0 0 0-8 2 20 20 0 0 0-7 4 19 19 0 0 0 0 27 20 20 0 0 0 14 6 2062 2062 0 0 1 294 25 20 20 0 0 0 5 0 147 147 0 0 0 69-21 20 20 0 0 0 7-10 19 19 0 0 0 0-12 20 20 0 0 0-7-10 20 20 0 0 0-12-3 21 21 0 0 0-13 4 102 102 0 0 1-44 13 2133 2133 0 0 0-298-25z m734-466a82 82 0 0 0-48 15l-4 3a20 20 0 0 0-3 2l-236 166a20 20 0 0 0-5 6 19 19 0 0 0 0 22 20 20 0 0 0 6 5 20 20 0 0 0 22-1l16-11 221-156a19 19 0 0 0 2-1l4-3a43 43 0 0 1 30-7 42 42 0 0 1 27 15 40 40 0 0 1 8 17 40 40 0 0 1-14 39l-316 251c-121-62-207-30-247-5a45 45 0 0 0-16 18 44 44 0 0 0 2 45 46 46 0 0 0 18 15l180 94a101 101 0 0 0 76 6l107-33a142 142 0 0 1 96 3l47 18a21 21 0 0 0 15 0 20 20 0 0 0 7-4 20 20 0 0 0 4-6 19 19 0 0 0 0-15 20 20 0 0 0-4-6 20 20 0 0 0-7-5l-47-18a183 183 0 0 0-124-4l-106 33a59 59 0 0 1-45-4l-181-94a6 6 0 0 1-2-2 6 6 0 0 1-1-3 5 5 0 0 1 0-3 5 5 0 0 1 2-2c42-26 115-45 218 13a20 20 0 0 0 23-2l326-260a78 78 0 0 0 29-76 79 79 0 0 0-16-34 81 81 0 0 0-29-23 83 83 0 0 0-35-8z m-83-91a83 83 0 0 0-48 15l-217 151a20 20 0 0 0-8 12 19 19 0 0 0 4 15 20 20 0 0 0 13 8 20 20 0 0 0 14-4l217-150a43 43 0 0 1 31-6 42 42 0 0 1 27 17 40 40 0 0 1 7 30 41 41 0 0 1-16 26l-216 152a20 20 0 0 0-7 13 19 19 0 0 0 3 14 20 20 0 0 0 13 8 21 21 0 0 0 14-3l217-152a80 80 0 0 0 30-40 79 79 0 0 0 0-50 80 80 0 0 0-30-40 84 84 0 0 0-49-15z m-94-78a80 80 0 0 0-45 14l-195 131a20 20 0 0 0-8 13 19 19 0 0 0 3 15 20 20 0 0 0 13 8 20 20 0 0 0 15-3l194-132a40 40 0 0 1 15-6 40 40 0 0 1 29 5 39 39 0 0 1 11 11 38 38 0 0 1 7 28 39 39 0 0 1-16 25l-193 134a20 20 0 0 0-6 6 19 19 0 0 0 1 22 20 20 0 0 0 5 5 20 20 0 0 0 23-1l193-134a78 78 0 0 0 33-50 77 77 0 0 0-13-58 78 78 0 0 0-22-21 80 80 0 0 0-29-11 82 82 0 0 0-15-1z m-115-65a82 82 0 0 0-40 11l-107 61a20 20 0 0 0-10 12 19 19 0 0 0 2 15 20 20 0 0 0 12 9 21 21 0 0 0 16-2l107-61a41 41 0 0 1 30-4 40 40 0 0 1 25 18 38 38 0 0 1 4 28 38 38 0 0 1-16 23l-138 94a20 20 0 0 0-5 5 19 19 0 0 0 0 22 20 20 0 0 0 6 5 20 20 0 0 0 22 0l138-93a78 78 0 0 0 30-39 76 76 0 0 0 0-49 78 78 0 0 0-28-39 81 81 0 0 0-48-16z m-227 12a82 82 0 0 0-46 14 79 79 0 0 0-29 37 77 77 0 0 0-3 47 78 78 0 0 0 25 40l53 46a81 81 0 0 0 28 15 83 83 0 0 0 61-3 81 81 0 0 0 25-19 78 78 0 0 0 16-27 77 77 0 0 0-4-60 79 79 0 0 0-19-24l-54-46a82 82 0 0 0-53-20z m54 164a41 41 0 0 1-27-9l-54-46a40 40 0 0 1-9-13 39 39 0 0 1-2-30 39 39 0 0 1 8-13 41 41 0 0 1 27-14 42 42 0 0 1 16 2 41 41 0 0 1 14 8l53 46a39 39 0 0 1 13 20 39 39 0 0 1-1 24 40 40 0 0 1-15 18 41 41 0 0 1-23 7z m-175-110c-2 0-4 0-6 0a82 82 0 0 0-30 7 80 80 0 0 0-25 19 79 79 0 0 0-16 27 77 77 0 0 0 4 60 79 79 0 0 0 19 25l89 77a81 81 0 0 0 28 15 83 83 0 0 0 61-4 81 81 0 0 0 25-18l-14-14 15 13a78 78 0 0 0 16-27 77 77 0 0 0-4-60 79 79 0 0 0-20-24l-89-77a81 81 0 0 0-53-20z m89 195a41 41 0 0 1-27-9l-90-77a40 40 0 0 1-12-20 39 39 0 0 1 1-23 40 40 0 0 1 14-19 42 42 0 0 1 22-8 41 41 0 0 1 16 2 40 40 0 0 1 14 8l89 76a40 40 0 0 1 10 13 39 39 0 0 1 2 30 39 39 0 0 1-8 13l-1 1a40 40 0 0 1-12 9 41 41 0 0 1-16 4l-2 0z m-191-123c-1 0-3 0-5 0a82 82 0 0 0-30 7 80 80 0 0 0-25 19l-3 3a78 78 0 0 0 8 111l104 89a81 81 0 0 0 27 15 82 82 0 0 0 61-4 81 81 0 0 0 25-18l3-3a78 78 0 0 0-8-111l-103-89a81 81 0 0 0-54-20z m102 209a41 41 0 0 1-27-9l-104-89a39 39 0 0 1-3-56l2-3a41 41 0 0 1 57-3l104 88a40 40 0 0 1 10 13 39 39 0 0 1 2 30 39 39 0 0 1-8 13l-3 3a40 40 0 0 1-12 9 41 41 0 0 1-15 4c-1 0-2 0-3 0z m-189-122c-2 0-3 0-5 0a82 82 0 0 0-44 16 79 79 0 0 0-28 37 78 78 0 0 0-1 46 79 79 0 0 0 24 40l65 55a81 81 0 0 0 28 15 82 82 0 0 0 61-3 81 81 0 0 0 25-19l1-1a78 78 0 0 0 16-27 77 77 0 0 0-4-60 79 79 0 0 0-19-24l-65-56a81 81 0 0 0-54-19z m64 175a41 41 0 0 1-26-10l-65-56a40 40 0 0 1-10-12 39 39 0 0 1-2-30 39 39 0 0 1 8-14 41 41 0 0 1 13-9 42 42 0 0 1 31-3 41 41 0 0 1 14 8l65 55a40 40 0 0 1 10 13 39 39 0 0 1 2 30 39 39 0 0 1-8 13l-1 1a40 40 0 0 1-13 10 41 41 0 0 1-15 4l-3 0z m-100-67a20 20 0 0 0-12 4l-69 51a20 20 0 0 0-5 6 19 19 0 0 0 1 21 20 20 0 0 0 14 8 21 21 0 0 0 8-1 20 20 0 0 0 7-3l68-51a20 20 0 0 0 7-10 19 19 0 0 0 0-12 20 20 0 0 0-7-10 20 20 0 0 0-12-3z m924-22a20 20 0 0 0-12 4 20 20 0 0 0-7 8 19 19 0 0 0-1 12 19 19 0 0 0 5 10l113 110a20 20 0 0 0 28-1 19 19 0 0 0 0-27l-112-110a20 20 0 0 0-7-4 21 21 0 0 0-7-2z m153 41a20 20 0 0 0-10 2 20 20 0 0 0-7 7l-245 389a19 19 0 0 0-3 14 20 20 0 0 0 8 12l242 183a20 20 0 0 0 9 4 21 21 0 0 0 10-1 20 20 0 0 0 8-5 19 19 0 0 0 5-9l119-508a19 19 0 0 0-1-12 20 20 0 0 0-8-10l-117-64a20 20 0 0 0-10-2z m-219 404l226-358 87 48-109 464z m-951-411a20 20 0 0 0-10 3l-117 64a20 20 0 0 0-9 9 19 19 0 0 0-1 12l119 508a19 19 0 0 0 5 9 20 20 0 0 0 8 5 20 20 0 0 0 19-3l243-183a20 20 0 0 0 7-12 19 19 0 0 0-2-14l-245-389a20 20 0 0 0-8-6 20 20 0 0 0-9-3z m-94 94l87-48 225 358-204 154z" horiz-adv-x="1482" />

<glyph glyph-name="idea" unicode="&#xe817;" d="M755 396a284 284 0 0 0-40-146 293 293 0 0 0-107-104 74 74 0 0 1-39-64v-113a45 45 0 0 0-45-45h-1v-16a45 45 0 0 0-46-45h-31a45 45 0 0 0-45 45v16h-1a45 45 0 0 0-46 45v115a70 70 0 0 1-37 61 292 292 0 0 0-114 114 284 284 0 0 0 48 338 297 297 0 0 0 406 14 287 287 0 0 0 98-215z m-261-472h-64v-16a16 16 0 0 1 16-17h31a16 16 0 0 1 16 17z m46 122h-157v-33h94a14 14 0 1 0 0-28h-94v-16a16 16 0 0 1 17-17h124a16 16 0 0 1 16 17v16h-1a14 14 0 1 0 0 28h1z m90 149a48 48 0 0 1-10 6l-40 17a219 219 0 0 0-237 0l-40-17a48 48 0 0 1-10-6 267 267 0 0 1 38-25 99 99 0 0 0 52-86v-10h157v8a102 102 0 0 0 54 89 266 266 0 0 1 36 24z m-236 224a86 86 0 0 0-27-17v-6a94 94 0 0 1 189 0v26c-40-5-106-4-151 40a14 14 0 0 0 0 20 15 15 0 0 0 20 0c15-14 59-46 145-29a1 1 0 0 1 1 1v3a93 93 0 0 1-94 92h-31a93 93 0 0 1-94-92v-28a3 3 0 0 1 0-2l1 0a52 52 0 0 1 21 13 15 15 0 0 0 21-1 14 14 0 0 0-1-20z m-7-182l-12-5a190 190 0 0 1 173 0l-12 5a45 45 0 0 0-27 41v6a125 125 0 0 0-95 0v-6a45 45 0 0 0-27-41z m339 159a259 259 0 0 1-88 194 264 264 0 0 1-176 66 283 283 0 0 1-31-2 265 265 0 0 1-159-77 256 256 0 0 1-43-305 261 261 0 0 1 43-57 77 77 0 0 0 19 12l84 37a16 16 0 0 1 10 14v23a120 120 0 0 0-46 95v6a29 29 0 0 0-4 3 30 30 0 0 0-12 24v28a122 122 0 0 0 123 121h31a122 122 0 0 0 123-121v-3a30 30 0 0 0-15-26v-32a120 120 0 0 0-47-95v-23a16 16 0 0 1 10-15l84-36a77 77 0 0 0 19-12 262 262 0 0 1 39 49 256 256 0 0 1 36 132z m-250 427v-92a15 15 0 0 0-29 0v92a15 15 0 0 0 29 0z m434-427a14 14 0 0 0-14-14h-93a14 14 0 1 0 0 28h93a14 14 0 0 0 14-14z m-775 0a14 14 0 0 0-15-14h-93a14 14 0 1 0 0 28h93a14 14 0 0 0 15-14z m644 292l-66-65a15 15 0 0 0-20 0 14 14 0 0 0 0 20l65 65a15 15 0 0 0 21 0 14 14 0 0 0 0-20z m-548-540l-66-64a15 15 0 0 0-21 0 14 14 0 0 0 0 20l66 65a15 15 0 0 0 21 0 14 14 0 0 0 0-21z m548-64a15 15 0 0 0-21 0l-65 64a14 14 0 0 0 0 21 15 15 0 0 0 20 0l66-65a14 14 0 0 0 0-20z m-548 539a15 15 0 0 0-21 0l-66 65a14 14 0 0 0 0 20 15 15 0 0 0 21 0l66-65a14 14 0 0 0 0-20z" horiz-adv-x="923" />

<glyph glyph-name="bars" unicode="&#xe818;" d="M1101 677a157 157 0 0 0-154-159 155 155 0 0 0-153 158 154 154 0 1 0 307 1z m-33-1a121 121 0 1 1-242 1 121 121 0 1 1 242-1z m-71-33a35 35 0 0 0-1-11l-3-10a61 61 0 0 0-6-8 47 47 0 0 0-6-8 37 37 0 0 0-8-5 37 37 0 0 0-10-5h-1v-23h-26v22h-2a23 23 0 0 0-8 1c-3 1-6 1-9 2a19 19 0 0 0-7 3 14 14 0 0 1-10 1l-3 1v3l3 20 1 7 6-3c1 0 2-1 3-1s2-1 3-1c2-1 4-1 6-2a15 15 0 0 1 7-2 45 45 0 0 1 5-2h14a45 45 0 0 1 5 2c1 1 3 1 4 2a15 15 0 0 1 5 3l3 3a8 8 0 0 1 2 5v5a49 49 0 0 1-1 6c-1 2-1 3-2 4l-4 3c-1 0-2 1-3 2s-3 1-4 3a8 8 0 0 1-4 2 72 72 0 0 1-8 3 62 62 0 0 1-9 4 26 26 0 0 0-7 5 19 19 0 0 0-8 5c-2 2-3 5-5 7-1 2-3 5-4 7a29 29 0 0 0-3 9 25 25 0 0 0-1 9 38 38 0 0 0 1 11l3 10a22 22 0 0 0 4 8 47 47 0 0 0 6 8 19 19 0 0 0 8 5 37 37 0 0 0 9 5h1v21h26v-20h1c2 0 3-1 5-1a45 45 0 0 0 5-2c3 0 3-1 5-1s3-1 4-1l4-1v-4l-2-18-1-6-5 2c-1 0-2 1-5 1-1 0-3 1-4 1a45 45 0 0 1-5 1 9 9 0 0 1-5 1h-7a9 9 0 0 1-5-1 8 8 0 0 1-5-2l-3-3c-1-1-1-3-2-4 0-2-2-4-2-5v-5a7 7 0 0 1 2-5 6 6 0 0 1 2-4l3-3c1-1 3-1 4-3s3-1 4-2a8 8 0 0 1 4-2 72 72 0 0 1 9-3c3-1 5-3 8-5a26 26 0 0 0 8-4 19 19 0 0 0 7-5c2-3 3-5 5-7a28 28 0 0 0 5-8 29 29 0 0 0 3-8 25 25 0 0 0 1-9z m-127-171l-179-146a19 19 0 0 0-17-2l-222 95-229-169a17 17 0 0 0-10-3 15 15 0 0 0-14 7 18 18 0 0 0 4 24l237 174a17 17 0 0 0 16 3l221-95 172 140a18 18 0 0 0 24-3 19 19 0 0 0-3-25z m266-589a17 17 0 0 0-16-18h-1088a18 18 0 0 0 0 35h79v254a17 17 0 0 0 17 17h157a17 17 0 0 0 17-17v-254h57v356a17 17 0 0 0 17 18h155a17 17 0 0 0 17-18v-356h57v330a17 17 0 0 0 17 18h157a17 17 0 0 0 17-18v-330h57v505a17 17 0 0 0 17 17h155a17 17 0 0 0 17-17v-505h78a16 16 0 0 0 16-17z m-869 254h-122v-237h122z m247 102h-121v-339h121z m247-26h-122v-313h122z m247 174h-121v-487h121z" horiz-adv-x="1152" />

<glyph glyph-name="risk" unicode="&#xe819;" d="M1012 186v-50a37 37 0 0 0-36-37 7 7 0 0 1-7-5 207 207 0 0 0-10-25 7 7 0 0 1 1-8 37 37 0 0 0 0-52l-35-35a36 36 0 0 0-52 0l0 0a7 7 0 0 1-8 1 205 205 0 0 0-25-10 7 7 0 0 1-5-7 37 37 0 0 0-36-37h-50a37 37 0 0 0-36 37 7 7 0 0 1-5 7 205 205 0 0 0-25 10 7 7 0 0 1-9-1l0 0a36 36 0 0 0-51 0l-35 35a37 37 0 0 0 0 52 7 7 0 0 1 1 8 207 207 0 0 0-10 25 7 7 0 0 1-7 5 37 37 0 0 0-36 37v50a37 37 0 0 0 36 36 7 7 0 0 1 7 5 207 207 0 0 0 10 25 7 7 0 0 1-1 9 37 37 0 0 0 0 51l35 35a36 36 0 0 0 51 0l0 0a7 7 0 0 1 8-1 205 205 0 0 0 26 10 7 7 0 0 1 5 7 37 37 0 0 0 36 37h49a37 37 0 0 0 37-37 7 7 0 0 1 5-7 205 205 0 0 0 25-10 7 7 0 0 1 8 1l0 0a36 36 0 0 0 52 0l35-35a37 37 0 0 0 0-52 7 7 0 0 1-2-8 207 207 0 0 0 11-25 7 7 0 0 1 7-5 37 37 0 0 0 36-36z m-29 0a7 7 0 0 1-7 7 36 36 0 0 0-35 24 177 177 0 0 1-9 22 37 37 0 0 0 7 42 7 7 0 0 1 0 10l-35 36a7 7 0 0 1-10 0l0 0a36 36 0 0 0-42-7 176 176 0 0 1-21 9 37 37 0 0 0-25 34 7 7 0 0 1-7 7h-50a7 7 0 0 1-7-7 36 36 0 0 0-25-34 176 176 0 0 1-21-9 36 36 0 0 0-42 6l0 0a7 7 0 0 1-10 0l-35-35a7 7 0 0 1 0-10 37 37 0 0 0 7-42 177 177 0 0 1-9-22 36 36 0 0 0-35-24 7 7 0 0 1-7-8v-49a7 7 0 0 1 7-7 36 36 0 0 0 35-25 177 177 0 0 1 9-22 37 37 0 0 0-7-42 7 7 0 0 1 0-10l35-35a7 7 0 0 1 10 0l0 0a36 36 0 0 0 42 7 176 176 0 0 1 21-10 37 37 0 0 0 25-34 7 7 0 0 1 7-7h50a7 7 0 0 1 7 7 36 36 0 0 0 24 34 176 176 0 0 1 22 10 36 36 0 0 0 42-7l0 0a7 7 0 0 1 10 0l35 35a7 7 0 0 1 0 10 37 37 0 0 0-7 42 177 177 0 0 1 10 22 36 36 0 0 0 34 25 7 7 0 0 1 7 7z m-98-25a111 111 0 1 0-111 111 111 111 0 0 0 111-111z m-29 0a82 82 0 1 1-82-82 82 82 0 0 1 82 82z m-267-206a15 15 0 0 0-5-20l-103-59a76 76 0 0 0-76 0l-352 204a77 77 0 0 0-39 66v408a77 77 0 0 0 39 67l352 204a77 77 0 0 0 76 0l353-204a77 77 0 0 0 38-67v-150a15 15 0 1 0-29 0v150a47 47 0 0 1-1 10l-384-222v-445a47 47 0 0 1 9 4l102 59a15 15 0 0 0 20-5z m-161 387l-383 222a47 47 0 0 1-1-10v-408a48 48 0 0 1 23-41l352-204a47 47 0 0 1 9-4z m15 25l384 222a47 47 0 0 1-8 6l-352 204a47 47 0 0 1-48 0l-352-204a47 47 0 0 1-8-6z" horiz-adv-x="1027" />

<glyph glyph-name="motivation" unicode="&#xe81b;" d="M645 176a304 304 0 0 0-221-96 16 16 0 0 0 0 32 275 275 0 0 1 200 86 267 267 0 0 1 73 185 15 15 0 1 0 30 0 298 298 0 0 0-82-207z m-618 233h61a16 16 0 0 0 0-31h-48v-487h135v487h-17a16 16 0 0 0 0 31h112a18 18 0 0 0 17-18v-11h18a68 68 0 0 1 44 17 286 286 0 0 0 88 52 142 142 0 0 1 84 91l92 288a17 17 0 0 0 16 12 129 129 0 0 0 126-131v-65a15 15 0 1 0-30 0v65a99 99 0 0 1-87 100l-89-279a173 173 0 0 0-102-110 256 256 0 0 1-79-47 97 97 0 0 0-63-24h-18v-218a15 15 0 1 0-30 0v247h-52v-429h52v109a15 15 0 1 0 30 0v-81h18a97 97 0 0 0 63-24 254 254 0 0 1 165-62h255a65 65 0 0 0-8 31v50a64 64 0 0 0 20 47 64 64 0 0 0-20 47v50a64 64 0 0 0 20 47 64 64 0 0 0-20 47v50a64 64 0 0 0 20 47 64 64 0 0 0-20 47v61a53 53 0 0 0 4 21 72 72 0 0 0-59 72v63a15 15 0 1 0 29 0v-63a41 41 0 0 1 40-42h175a62 62 0 0 0 60-62v-50a64 64 0 0 0-20-47 64 64 0 0 0 20-47v-50a64 64 0 0 0-20-47 64 64 0 0 0 20-47v-50a63 63 0 0 0-38-58 65 65 0 0 0 11-36v-50a62 62 0 0 0-60-62h-409a283 283 0 0 0-184 69 68 68 0 0 1-44 17h-18v-11a18 18 0 0 0-17-18h-65v-39a18 18 0 0 0-17-18h-161a18 18 0 0 0-17 18v513a18 18 0 0 0 17 18z m972-55v50a31 31 0 0 1-30 31h-140a20 20 0 0 1-19-20v-61a31 31 0 0 1 30-31h129a31 31 0 0 1 31 31z m0-144v50a31 31 0 0 1-30 31h-129a31 31 0 0 1-30-31v-50a31 31 0 0 1 30-31h129a31 31 0 0 1 31 31z m0-94a31 31 0 0 1-30 31h-129a31 31 0 0 1-30-31v-50a31 31 0 0 1 30-31h129a31 31 0 0 1 31 31z m-27-194v50a31 31 0 0 1-30 32h-102a31 31 0 0 1-30-32v-50a31 31 0 0 1 30-31h102a31 31 0 0 1 30 31z m-865-5a44 44 0 0 0 0 89 44 44 0 0 0 0-89z m0 58a13 13 0 1 1 13-13 13 13 0 0 1-13 13z m885 690l-17-9a107 107 0 0 1-46-49l-9-18a17 17 0 0 0-31 0l-9 18a107 107 0 0 1-46 49l-17 9a18 18 0 0 0 0 32l17 9a107 107 0 0 1 46 49l9 18a17 17 0 0 0 31 0l9-18a107 107 0 0 1 46-49l17-9a18 18 0 0 0 0-32z m-87 70a138 138 0 0 0-53-54 138 138 0 0 0 53-55 138 138 0 0 0 52 55 138 138 0 0 0-52 54z m-435-171l-14-7a86 86 0 0 1-38-39l-7-16a17 17 0 0 0-30 0l-7 16a86 86 0 0 1-38 39l-14 7a18 18 0 0 0 0 32l14 7a86 86 0 0 1 38 40l7 15a17 17 0 0 0 30 0l7-15a86 86 0 0 1 38-40l14-7a18 18 0 0 0 0-32z m-74 56a118 118 0 0 0-39-40 118 118 0 0 0 39-40 118 118 0 0 0 38 40 118 118 0 0 0-38 40z" horiz-adv-x="1039" />

<glyph glyph-name="hexagon" unicode="&#xe81c;" d="M1026 470a73 73 0 0 0 0-44l-168-518a70 70 0 0 0-24-35 67 67 0 0 0-40-13h-548a67 67 0 0 0-40 13 70 70 0 0 0-25 35l-167 518a73 73 0 0 0 0 44 71 71 0 0 0 25 36l442 321a66 66 0 0 0 78 0l442-321a71 71 0 0 0 25-36z m-487 329c0 0-1 1-2 1v-283l156-113 290 72c-1 0-1 1-2 1z m130-421l-149 108-150-108 60-168h180z m-610 99c-1 0-2-1-2-2l289-71 157 113v283c-1 0-2-1-3-1z m155-558c0-1 0-1 1-2l184 278-62 175-292 72a36 36 0 0 1 1-5z m580-24a31 31 0 0 1 4 1l-185 279h-186l-186-279a31 31 0 0 1 5-1z m200 542a37 37 0 0 1 1 5l-292-72-62-175 184-278c0 1 1 1 1 2l168 518z" horiz-adv-x="1039" />

<glyph glyph-name="vector" unicode="&#xe81d;" d="M657 14h0a17 17 0 0 0-18-17h-242v-102h40a17 17 0 1 0 0-34h-57a17 17 0 0 0-18 17v136a17 17 0 0 0 18 17h22l-111 181a16 16 0 0 0 0 17l110 179a18 18 0 0 0 24 6 17 17 0 0 0 7-24l-106-170 118-189h196a17 17 0 0 0 17-17z m554 245v-107a17 17 0 0 0-18-17h-111a17 17 0 0 0-18 17v107a17 17 0 0 0 18 17h37a480 480 0 0 1-132 313 514 514 0 0 1-304 157v-31a17 17 0 0 0-18-17h-25l290-469a16 16 0 0 0 0-17l-112-181h23a17 17 0 0 0 17-17v-136a17 17 0 0 0-17-17h-333a17 17 0 1 0 0 34h315v102h-113a17 17 0 0 0-18 17 17 17 0 0 0 0 1 17 17 0 0 0 18 16h66l117 189-265 431v-314a68 68 0 0 0 53-65 70 70 0 0 0-141 0 68 68 0 0 0 53 65v314l-125-202a18 18 0 0 0-24-6 17 17 0 0 0-6 24l143 231h-26a17 17 0 0 0-18 17v31a514 514 0 0 1-304-157 480 480 0 0 1-132-313h39a17 17 0 0 0 17-17v-107a17 17 0 0 0-17-17h-111a17 17 0 0 0-18 17v107a17 17 0 0 0 18 17h37a513 513 0 0 0 141 336 546 546 0 0 0 203 136h-255a73 73 0 0 0-71-52 72 72 0 0 0-73 70 72 72 0 0 0 73 71 73 73 0 0 0 71-55h382v40a17 17 0 0 0 18 17h111a17 17 0 0 0 18-17v-40h381a73 73 0 0 0 71 55 72 72 0 0 0 73-71 72 72 0 0 0-73-70 73 73 0 0 0-70 52h-255a546 546 0 0 0 203-136 513 513 0 0 0 140-336h39a17 17 0 0 0 18-17z m-113 507a38 38 0 0 1 76 0 38 38 0 0 1-76 0z m-976 0a37 37 0 0 1-38 37 37 37 0 0 1-38-37 37 37 0 0 1 38-36 37 37 0 0 1 38 36z m-76-524v-73h76v73z m564 64a34 34 0 1 1 35-34 35 35 0 0 1-35 34z m38 499h-76v-73h76v33h0z m528-563h-76v-73h76z" horiz-adv-x="1222" />

<glyph glyph-name="intelligence" unicode="&#xe81e;" d="M279 818a405 405 0 0 0 415-97 400 400 0 0 0 109-202 508 508 0 0 1 79-181l30-45a24 24 0 0 0-20-37h-81v-122a65 65 0 0 0-65-64h-58a4 4 0 0 1-3-4v-207h-361l-1 14a328 328 0 0 1-35 115 332 332 0 0 1-106 121 401 401 0 0 0 97 709z m-239-380a370 370 0 0 1 160-304 364 364 0 0 0 115-132 360 360 0 0 0 36-112h303v176a34 34 0 0 0 34 35h58a34 34 0 0 1 35 33v129a24 24 0 0 0 23 24h75l-23 34a540 540 0 0 0-83 192 368 368 0 0 1-101 187 375 375 0 0 1-384 89 367 367 0 0 1-248-351z m100-48v98l66 13a216 216 0 0 0 18 43l-38 57 70 69 57-37a220 220 0 0 0 42 17l14 67h98l14-67a219 219 0 0 0 43-17l56 37 70-69-37-57a220 220 0 0 0 17-42l67-14v-98l-67-14a216 216 0 0 0-17-42l37-57-70-69-56 37a229 229 0 0 0-43-17l-14-67-98 0-14 67a220 220 0 0 0-42 17l-57-37-70 69 38 57a224 224 0 0 0-18 42z m30 25l61-12 3-10a194 194 0 0 1 21-52l5-8-34-52 34-34 52 34 8-4a186 186 0 0 1 52-22l10-2 12-61h49l12 60 9 3a188 188 0 0 1 53 21l8 5 52-34 34 34-34 52 5 8a189 189 0 0 1 21 52l3 10 60 12v48l-61 13-2 9a194 194 0 0 1-22 52l-5 8 35 52-35 34-51-34-9 5a192 192 0 0 1-52 21l-9 3-13 60h-48l-12-60-10-3a196 196 0 0 1-52-21l-8-5-52 34-34-34 34-52-5-8a184 184 0 0 1-22-52l-2-10-61-12z m135 24a113 113 0 1 0 113-113 113 113 0 0 0-113 113z m31 0a83 83 0 1 1 82 82 83 83 0 0 1-83-82z" horiz-adv-x="925" />

<glyph glyph-name="star" unicode="&#xe81f;" d="M642 499l318-46-230-224 54-317-284 150-284-150 54 317-230 224 318 46 142 289z" horiz-adv-x="1000" />

<glyph glyph-name="quote" unicode="&#xe820;" d="M1100 250h300v600l-600 0v-600l200-400h300z m-800 0h300l0 600-600 0 0-600 200-400h300z" horiz-adv-x="1400" />

<glyph glyph-name="location-filled" unicode="&#xe821;" d="M801 225a426 426 0 0 0-45-69c-2-2-4-4-6-6h0l0-1h1l-253-268a100 100 0 0 0-145 0l-253 268h1l0 1-1 1a425 425 0 1 0 701 74z m-269 81a150 150 0 1 1-107-44 150 150 0 0 1 107 44z" horiz-adv-x="851" />

<glyph glyph-name="phone-filled" unicode="&#xe822;" d="M651 250a41 41 0 0 0 38 11l153-31a42 42 0 0 0 33-40v-173a42 42 0 0 0-43-42 752 752 0 0 0-332 101 753 753 0 0 0-274 274 747 747 0 0 0-101 332 42 42 0 0 0 42 43h173a42 42 0 0 0 40-33l32-154a43 43 0 0 0-12-37l-104-105a673 673 0 0 1 250-250l105 104z" horiz-adv-x="1000" />

<glyph glyph-name="message-filled" unicode="&#xe823;" d="M875 50h-700a75 75 0 0 0-75 75v450a75 75 0 0 0 75 75h700a75 75 0 0 0 75-75v-450a75 75 0 0 0-75-75z m10 531c-17 16-34 8-48-4l-312-252-312 252c-14 12-31 20-48 4a28 28 0 0 1 2-42l203-186-195-203a19 19 0 0 1-3-26 23 23 0 0 1 28-2l218 186 107-97 107 97 218-186a23 23 0 0 1 28 2 19 19 0 0 1-3 26l-195 203 203 186a28 28 0 0 1 1 42z" horiz-adv-x="1000" />

<glyph glyph-name="twitter" unicode="&#xe824;" d="M1106 602a536 536 0 0 1 125 130 474 474 0 0 0-144-39 247 247 0 0 1 111 140 534 534 0 0 0-159-63 254 254 0 0 1-439-173 238 238 0 0 1 7-58 734 734 0 0 0-523 265 246 246 0 0 1-33-127 249 249 0 0 1 113-210 267 267 0 0 0-116 31v-2a253 253 0 0 1 203-248 282 282 0 0 0-65-10 327 327 0 0 0-49 5 252 252 0 0 1 237-176 509 509 0 0 0-314-109 469 469 0 0 0-60 5 705 705 0 0 1 388-113 712 712 0 0 1 718 718z" horiz-adv-x="1231" />

<glyph glyph-name="facebook" unicode="&#xe825;" d="M1006 347a503 503 0 0 0-426-497v351h118l22 146h-140v93a74 74 0 0 0 83 79h63v124a741 741 0 0 1-113 10 178 178 0 0 1-189-196v-110h-128v-146h128v-351a503 503 0 1 0 582 497z" horiz-adv-x="1006" />

<glyph glyph-name="instagram" unicode="&#xe826;" d="M501 608a257 257 0 1 1 257-257 257 257 0 0 1-257 257z m0-424a167 167 0 0 0-167 167 166 166 0 1 0 167-167z m326 433a60 60 0 1 1-60-61 60 60 0 0 1 60 61z m170-61a301 301 0 0 1-81 210 301 301 0 0 1-209 81c-83 4-331 4-413 0a305 305 0 0 1-210-81 301 301 0 0 1-81-209c-4-83-4-331 0-413a305 305 0 0 1 81-210 305 305 0 0 1 210-81c82-4 330-4 413 0a301 301 0 0 1 209 81 305 305 0 0 1 81 210c4 82 4 330 0 413z m-107-500a166 166 0 0 0-94-96 1081 1081 0 0 0-295-20 1069 1069 0 0 0-294 20 169 169 0 0 0-96 97 1069 1069 0 0 0-21 294 1081 1081 0 0 0 21 295 172 172 0 0 0 96 94 1069 1069 0 0 0 294 20 1081 1081 0 0 0 295-20 168 168 0 0 0 94-94 1081 1081 0 0 0 20-295 1069 1069 0 0 0-20-294z" horiz-adv-x="1000" />

<glyph glyph-name="linkedin" unicode="&#xe827;" d="M929 850h-860a72 72 0 0 1-69-74v-855a70 70 0 0 1 69-71h860a72 72 0 0 1 71 71v855a74 74 0 0 1-71 74z m-628-857h-147v475h147z m-73 542a85 85 0 0 0-87 85 86 86 0 1 0 172 0 85 85 0 0 0-85-85z m629-542h-149v232c0 54 0 125-76 125-78 0-90-60-90-123v-234h-147v475h141v-64h2a157 157 0 0 0 141 78c149 0 178-101 178-228z" horiz-adv-x="1000" />

<glyph glyph-name="arrow-up-right" unicode="&#xe828;" d="M170-88l637 637v-276c0-42 35-76 77-76 43 0 77 34 77 76v461c0 31-18 59-47 72-10 3-19 5-30 5l0 0h-461c-42 0-76-34-76-77 0-42 34-77 76-77h276l-637-637c-15-14-23-35-23-54 0-20 8-39 23-54 29-30 78-30 108 0l0 0z" horiz-adv-x="1000" />
</font>
</defs>
</svg>
