<svg xmlns="http://www.w3.org/2000/svg" width="16" height="16" viewBox="0 0 16 16"><path d="M11.880 3.226 C 11.836 3.238,10.347 3.248,8.572 3.250 C 4.936 3.254,5.151 3.242,4.943 3.450 C 4.809 3.584,4.764 3.723,4.764 4.000 C 4.764 4.277,4.809 4.416,4.943 4.550 C 5.148 4.755,5.028 4.747,7.771 4.747 L 10.200 4.747 6.757 8.193 C 4.320 10.633,3.301 11.671,3.266 11.747 C 3.203 11.886,3.203 12.116,3.266 12.249 C 3.339 12.401,3.550 12.619,3.709 12.706 C 3.890 12.804,4.091 12.810,4.267 12.722 C 4.354 12.678,5.335 11.714,7.820 9.231 L 11.253 5.800 11.253 8.229 C 11.253 10.972,11.245 10.852,11.450 11.057 C 11.520 11.127,11.605 11.181,11.680 11.202 C 11.832 11.245,12.165 11.246,12.314 11.204 C 12.461 11.162,12.608 11.031,12.678 10.880 C 12.733 10.761,12.734 10.729,12.752 7.413 C 12.762 5.573,12.771 4.014,12.773 3.950 C 12.775 3.865,12.748 3.778,12.674 3.630 C 12.575 3.430,12.570 3.425,12.373 3.329 C 12.159 3.224,12.008 3.193,11.880 3.226 " fill="black" stroke="none" fill-rule="evenodd"></path></svg>
