<svg xmlns="http://www.w3.org/2000/svg" width="160.272" height="40.253">
  <path fill="#a4a4a4" fill-rule="evenodd" d="M20.963 1.121v7.365L0 25.811v-7.365Zm0 14.442v7.365L0 40.253v-7.365Z"/>
  <path fill="#a4a4a4" fill-rule="evenodd" d="M30.281 1.121v7.365L9.318 25.811v-7.365Zm0 14.442v7.365L9.318 40.253v-7.365Z"/>
  <path fill="#a4a4a4" d="M45.805 22.826a12.023 12.023 0 0 1-3.412-8.888 11.344 11.344 0 0 1 3.489-8.692 12.993 12.993 0 0 1 9.255-3.267 23.193 23.193 0 0 1 3.591.29 28.994 28.994 0 0 1 3.8.87v5.937h-2.563l-.665-3.7-.529-.631a6.839 6.839 0 0 0-1.4-.426 8.011 8.011 0 0 0-1.5-.136 7.715 7.715 0 0 0-6.167 2.6 10.6 10.6 0 0 0-2.243 7.157 10.768 10.768 0 0 0 2.295 7.31 8 8 0 0 0 6.372 2.636q.273 0 .768-.026t1.143-.077v-7.132l-.546-.478L54.898 16v-1.721h10.2V16l-2.03.171-.546.478v8.155a27.358 27.358 0 0 1-4.009 1.075 21.066 21.066 0 0 1-3.821.358 12.023 12.023 0 0 1-8.888-3.412Zm22.54.844a8.592 8.592 0 0 1-2.414-6.355 8.724 8.724 0 0 1 2.474-6.491 8.93 8.93 0 0 1 6.568-2.448 8.526 8.526 0 0 1 6.4 2.431 9.014 9.014 0 0 1 2.371 6.577 8.373 8.373 0 0 1-2.476 6.316 9.056 9.056 0 0 1-6.568 2.388 8.592 8.592 0 0 1-6.355-2.414Zm9.511-1.237a10.166 10.166 0 0 0 1.075-5.152 10.356 10.356 0 0 0-1.083-5.181 3.361 3.361 0 0 0-6-.034 10.142 10.142 0 0 0-1.075 5.118 10.536 10.536 0 0 0 1.066 5.2 3.28 3.28 0 0 0 2.96 1.86 3.374 3.374 0 0 0 3.057-1.81Zm12.483 3.378-3.873-.068V3h-2.524V1.638L89.128 0H90.8v9.98a14 14 0 0 1 2.678-1.186 8.1 8.1 0 0 1 2.388-.384 6.258 6.258 0 0 1 4.947 2.218 8.4 8.4 0 0 1 1.928 5.715 9.555 9.555 0 0 1-1.407 5.246 9.155 9.155 0 0 1-4.1 3.421 9.374 9.374 0 0 1-2.414.606 26.953 26.953 0 0 1-3.523.2Zm6.235-3.489q1.493-1.629 1.493-5.075a6.9 6.9 0 0 0-1.314-4.529A4.608 4.608 0 0 0 93 11.14a7.842 7.842 0 0 0-.981.068q-.537.068-1.22.2v12.51q.188.017.426.026t.682.009a6.039 6.039 0 0 0 4.666-1.629Zm9.771 1.348a8.592 8.592 0 0 1-2.414-6.355 8.724 8.724 0 0 1 2.474-6.491 8.93 8.93 0 0 1 6.568-2.448 8.526 8.526 0 0 1 6.4 2.431 9.014 9.014 0 0 1 2.371 6.577 8.373 8.373 0 0 1-2.475 6.316 9.056 9.056 0 0 1-6.568 2.388 8.592 8.592 0 0 1-6.355-2.414Zm9.511-1.237a10.166 10.166 0 0 0 1.075-5.152 10.356 10.356 0 0 0-1.083-5.181 3.361 3.361 0 0 0-6-.034 10.142 10.142 0 0 0-1.075 5.118 10.536 10.536 0 0 0 1.066 5.2 3.28 3.28 0 0 0 2.96 1.86 3.374 3.374 0 0 0 3.058-1.81Zm6.854 3.378v-1.57l1.791-.136.495-.529v-12.06h-2.388v-1.4l5.033-1.638h1.689v2.064a23.357 23.357 0 0 1 3.446-1.621 7.761 7.761 0 0 1 2.525-.512 4.346 4.346 0 0 1 3.566 1.433 6.788 6.788 0 0 1 1.177 4.367v9.366l.461.529 1.842.136v1.57H133.8v-1.57l1.5-.136.478-.529v-8.357a4.462 4.462 0 0 0-.751-2.858 2.917 2.917 0 0 0-2.388-.913 8.113 8.113 0 0 0-1.459.154q-.827.154-1.851.444v11.532l.478.529 1.535.136v1.57Zm21.576-.964a4.407 4.407 0 0 1-1.28-3.267 4.366 4.366 0 0 1 1.877-3.787q1.877-1.331 8.752-2.883v-1.04a3.992 3.992 0 0 0-.8-2.764 3.281 3.281 0 0 0-2.525-.87 6.333 6.333 0 0 0-.785.051q-.409.051-.887.154v3.276h-3.225a1.951 1.951 0 0 1-1.22-.307 1.171 1.171 0 0 1-.384-.972q0-1.638 2.2-2.849a11.085 11.085 0 0 1 5.408-1.211q3.6 0 5.067 1.382t1.467 4.811v9.042l.461.495 1.86.171v1.535h-6.227l-.461-2a15.66 15.66 0 0 1-3.224 1.757 7.884 7.884 0 0 1-2.781.546 4.473 4.473 0 0 1-3.293-1.271Zm7.43-1.672a11.85 11.85 0 0 0 1.868-.793v-5.7a14.055 14.055 0 0 0-4.709 1.672 2.865 2.865 0 0 0-1.262 2.457 2.611 2.611 0 0 0 .7 1.919 2.541 2.541 0 0 0 1.894.708 5.119 5.119 0 0 0 1.51-.264ZM43.988 38.391v-.4l.664-.048.158-.139v-2.075l-1.946-3.415-.6-.1v-.388h2.274v.392l-.559.057-.1.11 1.5 2.689 1.643-2.612-.091-.139-.6-.105v-.392h2v.392l-.6.124-2.032 3.258v2.2l.158.139.664.048v.4Zm3.876-.6a2.48 2.48 0 0 1-.638-1.763 2.491 2.491 0 0 1 .633-1.763 2.129 2.129 0 0 1 1.636-.683 2.142 2.142 0 0 1 1.638.685 2.476 2.476 0 0 1 .64 1.76 2.471 2.471 0 0 1-.642 1.764 2.144 2.144 0 0 1-1.636.685 2.133 2.133 0 0 1-1.631-.685Zm2.62-.287a2.591 2.591 0 0 0 .373-1.476 2.583 2.583 0 0 0-.375-1.471 1.152 1.152 0 0 0-1.968 0 2.606 2.606 0 0 0-.37 1.474 2.594 2.594 0 0 0 .373 1.474 1.155 1.155 0 0 0 1.968 0Zm2.614.595a1.636 1.636 0 0 1-.334-1.108v-2.738h-.7v-.306l1.137-.363h.373v3.239a1.138 1.138 0 0 0 .229.786.926.926 0 0 0 .717.251 2.215 2.215 0 0 0 .552-.072 3.137 3.137 0 0 0 .585-.22v-3.315h-.7v-.306l1.137-.363h.37v4.247l.177.158.459.048v.354h-1.444v-.551a4.164 4.164 0 0 1-.848.487 1.969 1.969 0 0 1-.738.158 1.223 1.223 0 0 1-.972-.385Zm4.243.289v-.352l.523-.045.167-.158v-3.542h-.688v-.306l1.137-.349h.373v.917q.239-.244.5-.48t.547-.466a.42.42 0 0 1 .093-.019h.15a1.372 1.372 0 0 1 .291.031 1.571 1.571 0 0 1 .3.1v.841h-.31a.63.63 0 0 0-.5-.234.9.9 0 0 0-.494.174 2.911 2.911 0 0 0-.571.542v2.789l.167.158.683.048v.354Zm7.153 0v-.397l.654-.048.167-.139v-5.529h-1.5l-.139.148-.139.908h-.535v-1.505h5.527v1.5h-.54l-.125-.903-.139-.148h-1.5v5.527l.162.139.659.048v.4Zm3.452 0v-.352l.518-.045.167-.158v-3.542h-.688v-.306l1.137-.349h.373v.917q.239-.244.5-.48t.547-.466a.42.42 0 0 1 .093-.019h.15a1.372 1.372 0 0 1 .291.031 1.571 1.571 0 0 1 .3.1v.841h-.31a.63.63 0 0 0-.5-.234.9.9 0 0 0-.494.174 2.911 2.911 0 0 0-.571.542v2.789l.167.158.683.048v.354Zm4.405-.289a1.636 1.636 0 0 1-.336-1.108v-2.738h-.7v-.306l1.137-.363h.373v3.239a1.138 1.138 0 0 0 .229.786.926.926 0 0 0 .717.251 2.215 2.215 0 0 0 .553-.069 3.137 3.137 0 0 0 .585-.22v-3.318h-.7v-.306l1.137-.363h.373v4.247l.177.158.459.048v.354h-1.446v-.551a4.164 4.164 0 0 1-.848.487 1.969 1.969 0 0 1-.738.158 1.223 1.223 0 0 1-.972-.385Zm4.957.325a2.876 2.876 0 0 1-.595-.155V37h.468l.119.831a1.746 1.746 0 0 0 .413.177 1.565 1.565 0 0 0 .418.057.982.982 0 0 0 .666-.217.719.719 0 0 0 .251-.571.71.71 0 0 0-.172-.49 2.777 2.777 0 0 0-.822-.49 3.143 3.143 0 0 1-1-.621 1.032 1.032 0 0 1-.265-.721 1.216 1.216 0 0 1 .454-1.013 2.021 2.021 0 0 1 1.28-.358 3.236 3.236 0 0 1 .614.055 2.657 2.657 0 0 1 .533.16v1.108h-.482l-.076-.693a2 2 0 0 0-.373-.158 1.235 1.235 0 0 0-.353-.053.882.882 0 0 0-.6.186.652.652 0 0 0-.215.521.668.668 0 0 0 .172.463 2.224 2.224 0 0 0 .659.425q.076.038.234.11a3.8 3.8 0 0 1 .8.459.927.927 0 0 1 .277.361 1.18 1.18 0 0 1 .1.48 1.305 1.305 0 0 1-.484 1.083 2.093 2.093 0 0 1-1.345.389 4.395 4.395 0 0 1-.676-.05Zm3.667-.22a1.046 1.046 0 0 1-.227-.776v-3.156h-.616v-.306l.645-.282.42-.912h.367v1.041h1.49v.459h-1.49v2.58a1.438 1.438 0 0 0 .177.853.782.782 0 0 0 .635.217 2.923 2.923 0 0 0 .327-.019 2.967 2.967 0 0 0 .351-.062v.363a4.953 4.953 0 0 1-.659.16 3.753 3.753 0 0 1-.626.055 1.152 1.152 0 0 1-.791-.213Zm2.822-.4a2.485 2.485 0 0 1-.6-1.736 2.561 2.561 0 0 1 .633-1.794 2.1 2.1 0 0 1 1.627-.7 1.661 1.661 0 0 1 1.287.518 2.008 2.008 0 0 1 .475 1.412v.182a.947.947 0 0 1-.012.119h-3.173v.11a2.221 2.221 0 0 0 .444 1.459 1.475 1.475 0 0 0 1.2.537 2.084 2.084 0 0 0 .724-.139 4.03 4.03 0 0 0 .814-.43v.549a3.62 3.62 0 0 1-.9.435 3.1 3.1 0 0 1-.941.148 2.025 2.025 0 0 1-1.574-.666Zm2.544-2.553a1.392 1.392 0 0 0-.26-.908.926.926 0 0 0-.757-.315 1.106 1.106 0 0 0-.843.389 1.582 1.582 0 0 0-.4.986h2.259Zm1.855 2.582a2.492 2.492 0 0 1-.532-1.642 2.6 2.6 0 0 1 .7-1.889 2.421 2.421 0 0 1 1.822-.724 3.219 3.219 0 0 1 .416.029q.22.029.454.081v-1.843h-.75v-.305l1.193-.349h.365v6.64l.167.158.468.048v.354h-1.444v-.508a2.935 2.935 0 0 1-.745.449 2.05 2.05 0 0 1-.76.143 1.683 1.683 0 0 1-1.354-.642Zm2.317-.057a2.406 2.406 0 0 0 .542-.256v-3.358q-.267-.076-.48-.117a2.047 2.047 0 0 0-.38-.041 1.5 1.5 0 0 0-1.211.554 2.211 2.211 0 0 0-.461 1.462 2.084 2.084 0 0 0 .4 1.342 1.3 1.3 0 0 0 1.068.5 1.733 1.733 0 0 0 .523-.084Zm7.265.633a3 3 0 0 1-.764-.291 3.236 3.236 0 0 1-1.24-1.254 3.538 3.538 0 0 1-.451-1.76 3.329 3.329 0 0 1 .934-2.462 3.329 3.329 0 0 1 2.462-.935 5.445 5.445 0 0 1 .924.084 7.6 7.6 0 0 1 1.011.25v1.5h-.545l-.145-.884-.129-.177a2.9 2.9 0 0 0-.549-.191 2.4 2.4 0 0 0-.545-.062 2.2 2.2 0 0 0-1.758.755 3.044 3.044 0 0 0-.65 2.054 3.207 3.207 0 0 0 .678 2.166 2.349 2.349 0 0 0 1.877.786 2.921 2.921 0 0 0 .423-.031 2.8 2.8 0 0 0 .428-.1l.153-.153.239-1.089h.525v1.55a6.383 6.383 0 0 1-.984.256 5.691 5.691 0 0 1-.989.088 3.882 3.882 0 0 1-.9-.1Zm4.267-.308a1.636 1.636 0 0 1-.337-1.11v-2.738h-.7v-.306l1.137-.363h.373v3.239a1.138 1.138 0 0 0 .229.786.926.926 0 0 0 .717.251 2.215 2.215 0 0 0 .552-.072 3.137 3.137 0 0 0 .585-.22v-3.315h-.7v-.306l1.137-.363h.373v4.247l.177.158.459.048v.354h-1.444v-.551a4.164 4.164 0 0 1-.848.487 1.969 1.969 0 0 1-.738.158 1.223 1.223 0 0 1-.972-.385Zm4.243.289v-.354l.521-.048.167-.158v-3.539h-.688v-.306l1.137-.349h.373v.917q.239-.244.5-.48t.547-.466a.42.42 0 0 1 .093-.019h.15a1.372 1.372 0 0 1 .291.031 1.571 1.571 0 0 1 .3.1v.841h-.315a.63.63 0 0 0-.5-.234.9.9 0 0 0-.5.165 2.911 2.911 0 0 0-.571.542v2.798l.171.16.683.048v.352Zm3.409 0v-.354l.521-.048.167-.158v-3.539h-.688v-.306l1.137-.349h.373v.917q.239-.244.5-.48t.547-.466a.42.42 0 0 1 .093-.019h.15a1.372 1.372 0 0 1 .291.031 1.571 1.571 0 0 1 .3.1v.841h-.31a.63.63 0 0 0-.5-.234.9.9 0 0 0-.494.174 2.911 2.911 0 0 0-.571.542v2.789l.167.158.683.048v.354Zm4.224-5.961a.535.535 0 0 1-.165-.4.549.549 0 0 1 .165-.4.568.568 0 0 1 .8 0 .551.551 0 0 1 .165.4.535.535 0 0 1-.165.4.553.553 0 0 1-.4.162.547.547 0 0 1-.4-.163Zm-.762 5.962v-.355l.516-.048.167-.158v-3.539h-.683v-.306l1.123-.349h.382v4.195l.167.158.525.048v.354Zm3.034-.58a2.485 2.485 0 0 1-.6-1.736 2.561 2.561 0 0 1 .633-1.794 2.1 2.1 0 0 1 1.627-.7 1.661 1.661 0 0 1 1.287.518 2.008 2.008 0 0 1 .475 1.412v.182a.946.946 0 0 1-.012.119h-3.173v.11a2.221 2.221 0 0 0 .444 1.459 1.475 1.475 0 0 0 1.2.537 2.084 2.084 0 0 0 .724-.139 4.03 4.03 0 0 0 .814-.43v.542a3.62 3.62 0 0 1-.9.435 3.1 3.1 0 0 1-.941.148 2.025 2.025 0 0 1-1.574-.666Zm2.544-2.56a1.392 1.392 0 0 0-.26-.908.926.926 0 0 0-.757-.315 1.106 1.106 0 0 0-.843.389 1.582 1.582 0 0 0-.4.986h2.259Zm1.26 3.14v-.355l.521-.048.167-.158v-3.539h-.688v-.306l1.137-.349h.373v.917q.239-.244.5-.48t.547-.466a.42.42 0 0 1 .093-.019h.15a1.372 1.372 0 0 1 .291.031 1.571 1.571 0 0 1 .3.1v.841h-.31a.63.63 0 0 0-.5-.234.9.9 0 0 0-.494.174 2.911 2.911 0 0 0-.571.542v2.789l.167.158.683.048v.354Z"/>
</svg>