<svg xmlns="http://www.w3.org/2000/svg" viewBox="0 0 138 51.058">
  <text fill="#84848a" data-name="Agency Service" font-family="Inter-SemiBold, Inter" font-size="9" font-weight="600" letter-spacing=".01em" transform="translate(52 40.058)"><tspan x="0" y="9">Agency Service</tspan></text>
  <text fill="#191919" font-family="DMSans-Bold, 'DM Sans \31 4pt'" font-size="36" font-weight="700" letter-spacing="-.02em" transform="translate(52)"><tspan x="0" y="36">Crito</tspan></text>
  <path fill="#9437f0" d="M28.988 5.278a14.261 14.261 0 0 1 8.833-1.04 7.778 7.778 0 0 1 4.857 3.667c-.762.015-1.525.015-2.29.025a6.726 6.726 0 0 0-3.667-2.595 15.606 15.606 0 0 0-6.989-.152 4.735 4.735 0 0 1-.744.095Z" data-name="#9437f0ff"/>
  <g data-name="#9435f3ff">
    <path fill="#9435f3" d="M20.533 5.515a19.635 19.635 0 0 1 1.535-.027 9.222 9.222 0 0 1 .07 1.619c-.486-.036-.974-.017-1.459-.058a49.4 49.4 0 0 1-.146-1.534Z" data-name="Vector"/>
  </g>
  <g data-name="#8b39f7ff">
    <path fill="#8b39f7" d="M22.067 5.488c.571.021 1.143.054 1.712.111a1.693 1.693 0 0 0 .062 1.689c-.453-.044-.907-.079-1.36-.123l-.344-.058a9.223 9.223 0 0 0-.07-1.619Z" data-name="Vector"/>
  </g>
  <g data-name="#9f31efff">
    <path fill="#9f31ef" d="M18.928 5.662q.8-.101 1.6-.146c.043.512.087 1.024.146 1.534.485.042.973.022 1.459.059l.344.059h-1.092a17.088 17.088 0 0 0-1.84.1l-.4.052a97.84 97.84 0 0 0-.217-1.658Z" data-name="Vector"/>
  </g>
  <g data-name="#a92ce9ff">
    <path fill="#a92ce9" d="M17.092 5.991a22.009 22.009 0 0 1 1.837-.329c.076.553.151 1.107.218 1.661-.48.066-.958.14-1.43.242a3.37 3.37 0 0 1-.625-1.574Z" data-name="Vector"/>
  </g>
  <g data-name="#823efaff">
    <path fill="#823efa" d="M23.842 7.29a1.693 1.693 0 0 1-.062-1.69 23.29 23.29 0 0 1 1.576.234 10.6 10.6 0 0 0-.109 1.676c-.468-.077-.935-.16-1.406-.22Z" data-name="Vector"/>
  </g>
  <g data-name="#7643feff">
    <path fill="#7643fe" d="M25.357 5.833a19.913 19.913 0 0 1 2.9.777 11.31 11.31 0 0 0-.411 1.629c-.2-.067-.4-.132-.593-.2a17.487 17.487 0 0 0-2-.535 10.6 10.6 0 0 1 .104-1.671Z" data-name="Vector"/>
  </g>
  <g data-name="#b227e4ff">
    <path fill="#b227e4" d="M15.711 6.371a14.089 14.089 0 0 1 1.38-.38 3.37 3.37 0 0 0 .625 1.574c-.162.034-.323.073-.483.112a19.81 19.81 0 0 0-.794.217 3.676 3.676 0 0 1-.902-1.303Z" data-name="Vector"/>
  </g>
  <g data-name="#bc22dfff">
    <path fill="#bc22df" d="M14.326 6.843a8.722 8.722 0 0 1 1.371-.457 6.759 6.759 0 0 0 .742 1.507c-.505.16-1.012.32-1.508.5q-.285-.78-.605-1.55Z" data-name="Vector"/>
  </g>
  <g data-name="#664affff">
    <path fill="#664aff" d="M28.258 6.609a20.634 20.634 0 0 1 3.27 1.486c-.275.488-.531.986-.78 1.487a18.53 18.53 0 0 0-2.265-1.112 15.942 15.942 0 0 0-.642-.232 11.31 11.31 0 0 1 .417-1.629Z" data-name="Vector"/>
  </g>
  <g data-name="#c41ed9ff">
    <path fill="#c41ed9" d="M12.965 7.427c.449-.206.9-.404 1.361-.584q.319.77.606 1.555c-.292.113-.579.236-.866.361-.132.059-.264.118-.394.18a4.454 4.454 0 0 1-.707-1.505Z" data-name="Vector"/>
  </g>
  <g data-name="#e533f3ff">
    <path fill="#e533f3" d="M19.551 7.27a17.091 17.091 0 0 1 1.84-.1 28.385 28.385 0 0 1 .153 2.984 37.238 37.238 0 0 1 .07 3.752h-.359a10.54 10.54 0 0 0-1.055.079l-.174.022c.318-.384.092-.881.041-1.316-.329-1.788-.334-3.614-.516-5.421Z" data-name="Vector"/>
  </g>
  <g data-name="#d539f8ff">
    <path fill="#d539f8" d="M21.391 7.165h1.092c.453.044.908.08 1.359.123a1.012 1.012 0 0 1 .2.64c-.026.768-.134 1.533-.167 2.3-.11 1.081-.033 2.169-.053 3.254a1.662 1.662 0 0 1-.143.6 8.213 8.213 0 0 0-.781-.116 12 12 0 0 0-1.284-.061 37.235 37.235 0 0 0-.07-3.752 28.385 28.385 0 0 0-.153-2.988Z" data-name="Vector"/>
  </g>
  <g data-name="#f12ceeff">
    <path fill="#f12cee" d="M17.717 7.565c.472-.1.951-.176 1.43-.242l.404-.053c.182 1.807.187 3.633.516 5.423.051.435.278.932-.041 1.316-.277.035-.552.079-.826.133-.2.041-.389.088-.581.137a11.78 11.78 0 0 0-.448-1.626 6.335 6.335 0 0 1-.237-1.518c-.052-.586-.32-1.124-.4-1.706s-.164-1.174-.3-1.752c.16-.04.32-.078.483-.112Z" data-name="Vector"/>
  </g>
  <g data-name="#c73ffbff">
    <path fill="#c73ffb" d="M23.842 7.288c.471.06.938.143 1.406.22-.026.675-.111 1.346-.109 2.021 0 .824-.173 1.638-.115 2.463a13.517 13.517 0 0 1-.153 2.376c-.331-.1-.668-.18-1.005-.248l-.186-.032a1.662 1.662 0 0 0 .143-.6c.02-1.089-.056-2.176.057-3.257.03-.77.138-1.534.163-2.303a1.012 1.012 0 0 0-.201-.64Z" data-name="Vector"/>
  </g>
  <g data-name="#d217d0ff">
    <path fill="#d217d0" d="M10.481 8.835a19.206 19.206 0 0 1 2.487-1.4 4.454 4.454 0 0 0 .7 1.5 20.368 20.368 0 0 0-2.205 1.234l-.175.117c-.259-.489-.531-.97-.807-1.451Z" data-name="Vector"/>
  </g>
  <g data-name="#b943fdff">
    <path fill="#b943fd" d="M25.248 7.508a17.487 17.487 0 0 1 2 .535 8.739 8.739 0 0 1-.033 1.171c-.053.4-.218.77-.264 1.169-.115 1.547-.138 3.1-.335 4.642a10.94 10.94 0 0 0-1.222-.487q-.261-.089-.523-.169a13.516 13.516 0 0 0 .153-2.376c-.053-.825.116-1.64.115-2.464-.002-.675.083-1.346.109-2.021Z" data-name="Vector"/>
  </g>
  <g data-name="#ff23e7ff">
    <path fill="#ff23e7" d="M16.44 7.894c.263-.078.526-.15.794-.217.136.578.218 1.165.307 1.753s.346 1.12.4 1.706a6.336 6.336 0 0 0 .225 1.518 11.782 11.782 0 0 1 .453 1.623c-.205.054-.408.117-.609.183q-.473.158-.934.351a5.324 5.324 0 0 1-.37-.838 17.04 17.04 0 0 0-.8-1.536c-.307-.66-.784-1.241-1.051-1.927-.233-.6-.5-1.179-.789-1.75.287-.126.575-.248.866-.362.5-.185 1-.345 1.508-.5Z" data-name="Vector"/>
  </g>
  <g data-name="#8a40f1ff">
    <path fill="#8a40f1" d="M40.389 7.93c.763-.01 1.525-.012 2.288-.025a10.142 10.142 0 0 1 1.086 2.919c-.769 0-1.537 0-2.306-.005a7.175 7.175 0 0 0-1.068-2.889Z" data-name="Vector"/>
  </g>
  <g data-name="#ac48ffff">
    <path fill="#ac48ff" d="M27.248 8.043c.2.063.4.128.593.2.215.075.428.152.642.233a20.372 20.372 0 0 0-.245 2.347c-.189.992-.184 2.01-.414 3-.108.562-.169 1.141-.261 1.72a12.158 12.158 0 0 0-.738-.413l-.209-.106c.2-1.54.22-3.1.335-4.642.046-.4.21-.772.264-1.169a8.742 8.742 0 0 0 .033-1.17Z" data-name="Vector"/>
  </g>
  <g data-name="#5750ffff">
    <path fill="#5750ff" d="M30.747 9.582c.249-.501.505-.999.78-1.487a20.819 20.819 0 0 1 2.211 1.46 11.039 11.039 0 0 0-.824 1.412l-.026.067a12.912 12.912 0 0 0-1.687-1.193c-.154-.088-.302-.174-.454-.259Z" data-name="Vector"/>
  </g>
  <g data-name="#994dffff">
    <path fill="#994dff" d="M28.483 8.473a18.53 18.53 0 0 1 2.264 1.111c.152.085.3.171.454.259a15.611 15.611 0 0 0-.151 1.7c-.031.908-.311 1.785-.361 2.692-.022.634-.392 1.185-.454 1.81a13.841 13.841 0 0 1-.207 1.452q-.205-.217-.416-.424a10.69 10.69 0 0 0-1.462-1.15c-.194-.13-.387-.261-.587-.382.092-.574.151-1.154.261-1.725.231-.986.225-2 .414-3a20.372 20.372 0 0 1 .245-2.343Z" data-name="Vector"/>
  </g>
  <g data-name="#ff19e0ff">
    <path fill="#ff19e0" d="M13.671 8.938c.13-.062.262-.121.392-.18.289.571.556 1.154.789 1.75.267.686.743 1.263 1.052 1.93a17.037 17.037 0 0 1 .8 1.536 5.324 5.324 0 0 0 .37.838c-.1.044-.205.089-.307.136-.363.168-.718.356-1.064.557q-.2.118-.4.245c-.305-.519-.715-.965-1.022-1.482-.271-.456-.739-.764-.962-1.252a5.557 5.557 0 0 0-1.031-1.864 3.339 3.339 0 0 1-.825-.984 20.366 20.366 0 0 1 2.208-1.23Z" data-name="Vector"/>
  </g>
  <g data-name="#e20ec4ff">
    <path fill="#e20ec4" d="M8.46 10.376a19.862 19.862 0 0 1 2.022-1.543c.276.48.548.962.806 1.452a20.215 20.215 0 0 0-1.828 1.413 10.72 10.72 0 0 1-1-1.322Z" data-name="Vector"/>
  </g>
  <g data-name="#4a54ffff">
    <path fill="#4a54ff" d="M32.914 10.967a11.039 11.039 0 0 1 .824-1.412 19.812 19.812 0 0 1 2.9 2.68 4.3 4.3 0 0 0-1.058 1.328c-.188-.208-.379-.408-.566-.608a26.7 26.7 0 0 0-2.1-1.988Z" data-name="Vector"/>
  </g>
  <g data-name="#8452ffff">
    <path fill="#8452ff" d="M31.202 9.843a12.913 12.913 0 0 1 1.687 1.193c-.142.715-.109 1.453-.257 2.167a14.616 14.616 0 0 0-.222 1.459c-.063.66-.413 1.251-.466 1.913a22.576 22.576 0 0 1-.489 2.731c-.094-.15-.191-.3-.289-.444a11.9 11.9 0 0 0-1.137-1.366 13.841 13.841 0 0 0 .207-1.453c.062-.625.432-1.176.454-1.81.05-.907.33-1.783.361-2.692a15.61 15.61 0 0 1 .151-1.698Z" data-name="Vector"/>
  </g>
  <g data-name="#ff0ed6ff">
    <path fill="#ff0ed6" d="m11.288 10.285.175-.117a3.339 3.339 0 0 0 .825.984 5.557 5.557 0 0 1 1.033 1.864c.223.488.691.8.962 1.252.308.518.717.964 1.022 1.482-.147.095-.292.2-.435.3-.308.221-.606.457-.894.7a9.879 9.879 0 0 0-.8.743c-.388-.562-1-.93-1.324-1.54-.193-.375-.643-.49-.885-.824-.34-.454-.89-.657-1.272-1.063a13.739 13.739 0 0 1-1.296-1.338c.352-.344.7-.693 1.06-1.03a20.215 20.215 0 0 1 1.829-1.413Z" data-name="Vector"/>
  </g>
  <g data-name="#f306b8ff">
    <path fill="#f306b8" d="M6.471 12.355a17.376 17.376 0 0 1 1.989-1.976 10.72 10.72 0 0 0 1 1.321c-.359.337-.707.686-1.06 1.03-.276.274-.544.555-.795.851a5.861 5.861 0 0 0-1.134-1.226Z" data-name="Vector"/>
  </g>
  <g data-name="#8345f3ff">
    <path fill="#8345f3" d="M41.457 10.818c.769.009 1.537 0 2.306.005a14.55 14.55 0 0 1 .234 2.976c-.842.019-1.682 0-2.523 0a11.666 11.666 0 0 0-.017-2.981Z" data-name="Vector"/>
  </g>
  <g data-name="#7155ffff">
    <path fill="#7155ff" d="m32.888 11.036.026-.067a26.7 26.7 0 0 1 2.1 1.986c-.06.614-.425 1.161-.433 1.789-.027.825-.291 1.625-.321 2.455-.021.6-.4 1.12-.4 1.722-.022.55-.032 1.1-.084 1.647l-.357.02c-.222 0-.443.006-.664.005l-.56-.008c-.264-.416-.489-.856-.741-1.279a22.576 22.576 0 0 0 .489-2.732c.052-.662.4-1.253.466-1.913a14.616 14.616 0 0 1 .222-1.459c.148-.714.115-1.452.257-2.167Z" data-name="Vector"/>
  </g>
  <g data-name="#3858ffff">
    <path fill="#3858ff" d="M35.581 13.564a4.3 4.3 0 0 1 1.056-1.328 20.481 20.481 0 0 1 2.6 3.677 7.246 7.246 0 0 0-1.241 1.29 13.809 13.809 0 0 0-1.2-2.049 15.8 15.8 0 0 0-1.215-1.59Z" data-name="Vector"/>
  </g>
  <g data-name="#ff03acff">
    <path fill="#ff03ac" d="M6.471 12.354a5.861 5.861 0 0 1 1.134 1.226c-.34.413-.661.84-.983 1.266a2.054 2.054 0 0 0-1.597-.643 19.506 19.506 0 0 1 1.446-1.849Z" data-name="Vector"/>
  </g>
  <g data-name="#ff03c8ff">
    <path fill="#ff03c8" d="M7.603 13.582c.251-.3.519-.576.795-.851a13.739 13.739 0 0 0 1.3 1.339c.382.406.932.609 1.272 1.063.242.334.692.449.885.824.322.611.937.978 1.324 1.54l-.073.078a11.507 11.507 0 0 0-1.34 1.709l-.108.186a17.081 17.081 0 0 0-1.954-.5 14.892 14.892 0 0 0-2.92-.586c-.71.011-1.41-.125-2.118-.077.058-.131.119-.26.179-.389.255-.528.511-1.055.806-1.562a17.574 17.574 0 0 1 .97-1.508c.322-.426.643-.853.983-1.266Z" data-name="Vector"/>
  </g>
  <g data-name="#5b58ffff">
    <path fill="#5b58ff" d="M35.011 12.953c.19.2.381.4.569.609a15.794 15.794 0 0 1 1.211 1.591c-.035.406-.042.813-.068 1.22-.026.558-.4 1.033-.412 1.6a10.332 10.332 0 0 1-.359 2.5c-.724.079-1.454.06-2.179.1.052-.548.062-1.1.084-1.647.009-.6.382-1.122.4-1.722.03-.828.293-1.627.322-2.455.01-.635.373-1.178.432-1.796Z" data-name="Vector"/>
  </g>
  <g data-name="#7c4bf4ff">
    <path fill="#7c4bf4" d="M41.476 13.796c.841.007 1.681.023 2.523 0a17.925 17.925 0 0 1-.266 2.665c-.9.006-1.9.046-2.8.012.04-.16.1-.3.128-.438.172-.739.294-1.489.415-2.239Z" data-name="Vector"/>
  </g>
  <g data-name="#9f32eaff">
    <path fill="#9f32ea" d="M20.2 13.988a10.524 10.524 0 0 1 1.054-.079 10.769 10.769 0 0 0 .22 1.662c-.322.006-.644.028-.964.061a31.514 31.514 0 0 1-.31-1.644Z" data-name="Vector"/>
  </g>
  <g data-name="#9436efff">
    <path fill="#9436ef" d="M21.255 13.904h.359a12 12 0 0 1 1.285.063 15.8 15.8 0 0 0-.389.1c.029.514.06 1.03.067 1.545a10.876 10.876 0 0 0-1.1-.046 10.761 10.761 0 0 1-.222-1.662Z" data-name="Vector"/>
  </g>
  <g data-name="#aa2ce4ff">
    <path fill="#aa2ce4" d="M19.2 14.142c.273-.056.549-.098.826-.134l.174-.022c.091.551.19 1.1.311 1.644-.342.036-.682.09-1.02.156a4.321 4.321 0 0 1-.291-1.644Z" data-name="Vector"/>
  </g>
  <g data-name="#893bf4ff">
    <path fill="#893bf4" d="M22.51 14.07c.128-.035.258-.068.389-.1.261.023.522.068.781.116l.186.036q-.09.833-.169 1.665a11.512 11.512 0 0 0-1.12-.17c-.007-.516-.038-1.031-.067-1.547Z" data-name="Vector"/>
  </g>
  <g data-name="#b527deff">
    <path fill="#b527de" d="M18.619 14.28c.191-.049.385-.096.581-.137a4.321 4.321 0 0 0 .294 1.648q-.5.107-.981.261a5.39 5.39 0 0 1-.503-1.59c.2-.065.4-.128.609-.182Z" data-name="Vector"/>
  </g>
  <g data-name="#7c41f8ff">
    <path fill="#7c41f8" d="M23.866 14.119a11 11 0 0 1 1.005.249q.263.08.523.17a13.5 13.5 0 0 1-.378 1.627 10.513 10.513 0 0 0-1.319-.381q.08-.833.169-1.665Z" data-name="Vector"/>
  </g>
  <g data-name="#ff01a2ff">
    <path fill="#ff01a2" d="M5.025 14.203a2.054 2.054 0 0 1 1.6.644 17.571 17.571 0 0 0-.97 1.508 2.894 2.894 0 0 0-.7-.542 3.327 3.327 0 0 0-.865-.116c.289-.511.6-1.008.935-1.494Z" data-name="Vector"/>
  </g>
  <g data-name="#c121d7ff">
    <path fill="#c121d7" d="M17.076 14.812c.306-.129.618-.245.933-.351a5.39 5.39 0 0 0 .5 1.59 10.482 10.482 0 0 0-1.059.418 17.818 17.818 0 0 0-.681-1.521c.1-.047.2-.092.307-.136Z" data-name="Vector"/>
  </g>
  <g data-name="#7046fcff">
    <path fill="#7046fc" d="M25.393 14.538a10.942 10.942 0 0 1 1.222.486l.209.106a9.446 9.446 0 0 0-.568 1.583 10.118 10.118 0 0 0-1.241-.548 13.5 13.5 0 0 0 .378-1.627Z" data-name="Vector"/>
  </g>
  <g data-name="#cc1bcfff">
    <path fill="#cc1bcf" d="M15.706 15.503a12.8 12.8 0 0 1 1.064-.557c.252.5.477 1.005.685 1.522a9.686 9.686 0 0 0-.85.432 12.191 12.191 0 0 1-.899-1.397Z" data-name="Vector"/>
  </g>
  <g data-name="#644bffff">
    <path fill="#644bff" d="M26.257 16.715a9.445 9.445 0 0 1 .568-1.583c.249.13.5.265.738.409.2.122.393.252.587.382-.23.509-.463 1.026-.693 1.54a10.273 10.273 0 0 0-1.2-.748Z" data-name="Vector"/>
  </g>
  <g data-name="#485bffff">
    <path fill="#485bff" d="M36.791 15.154a13.809 13.809 0 0 1 1.2 2.049c.374.578 0 1.21-.015 1.824a6.387 6.387 0 0 1-.177 1.473c-.767.1-1.541.084-2.311.131a13.081 13.081 0 0 1-2.072-.044l.357-.02c.725-.038 1.455-.019 2.179-.1a10.332 10.332 0 0 0 .359-2.5c.017-.562.387-1.037.412-1.6.027-.4.033-.807.068-1.213Z" data-name="Vector"/>
  </g>
  <g data-name="#d717c7ff">
    <path fill="#d717c7" d="M15.306 15.75q.197-.126.4-.245a12.191 12.191 0 0 0 .9 1.4c-.293.172-.578.354-.853.552a27.558 27.558 0 0 0-.882-1.408c.143-.1.287-.2.435-.3Z" data-name="Vector"/>
  </g>
  <g data-name="#ff0098ff">
    <path fill="#ff0098" d="M3.232 17.397q.393-.87.858-1.7a3.327 3.327 0 0 1 .865.115 2.894 2.894 0 0 1 .7.542 22.155 22.155 0 0 0-.805 1.563 4.173 4.173 0 0 0-1.618-.52Z" data-name="Vector"/>
  </g>
  <g data-name="#594fffff">
    <path fill="#594fff" d="M28.151 15.92a10.69 10.69 0 0 1 1.461 1.151c-.294.5-.581 1-.873 1.493a9.543 9.543 0 0 0-1.279-1.104c.228-.514.46-1.027.691-1.54Z" data-name="Vector"/>
  </g>
  <g data-name="#2e5cffff">
    <path fill="#2e5cff" d="M37.995 17.201a7.245 7.245 0 0 1 1.241-1.29 14.057 14.057 0 0 1 1.1 2.453c-.052.152-.11.3-.168.453a29.85 29.85 0 0 1-1.567 3.437h-3.516a3.464 3.464 0 0 0 .406-1.624c.77-.047 1.545-.033 2.311-.131a6.387 6.387 0 0 0 .177-1.473c.012-.614.389-1.246.015-1.824Z" data-name="Vector"/>
  </g>
  <g data-name="#e010bfff">
    <path fill="#e010bf" d="M13.977 16.751c.288-.243.586-.479.894-.7.307.46.6.929.88 1.4q-.388.28-.748.594c-.358-.413-.695-.85-1.026-1.294Z" data-name="Vector"/>
  </g>
  <g data-name="#764ff5ff">
    <path fill="#764ff5" d="m40.932 16.472.101-.019c.9.034 1.8.014 2.7.007a29.86 29.86 0 0 1-.54 2.361 82.336 82.336 0 0 1-3.023 0c.058-.15.115-.3.168-.453.215-.624.432-1.255.594-1.896Z" data-name="Vector"/>
  </g>
  <g data-name="#ea0cb6ff">
    <path fill="#ea0cb6" d="M13.182 17.494a9.879 9.879 0 0 1 .795-.743c.331.441.668.877 1.026 1.3-.285.256-.555.527-.818.806-.35-.439-.727-.851-1.076-1.285Z" data-name="Vector"/>
  </g>
  <g data-name="#4d53ffff">
    <path fill="#4d53ff" d="M28.74 18.562c.292-.493.579-.993.873-1.493q.211.207.417.423a11.9 11.9 0 0 1 1.136 1.366 5.332 5.332 0 0 0-.965 1.585 10.014 10.014 0 0 0-1.461-1.881Z" data-name="Vector"/>
  </g>
  <g data-name="#ff008eff">
    <path fill="#ff008e" d="M3.233 17.395a4.173 4.173 0 0 1 1.614.522 15.128 15.128 0 0 0-.7 1.727 3.971 3.971 0 0 0-1.636-.389c.213-.63.456-1.249.722-1.86Z" data-name="Vector"/>
  </g>
  <g data-name="#f806aaff">
    <path fill="#f806aa" d="M11.763 19.282a11.506 11.506 0 0 1 1.345-1.709c.349.434.726.846 1.077 1.281a9.844 9.844 0 0 0-1.052 1.38 7.918 7.918 0 0 0-1.37-.952Z" data-name="Vector"/>
  </g>
  <g data-name="#ff00b9ff">
    <path fill="#ff00b9" d="M4.669 18.303c.706-.048 1.406.09 2.113.075a14.892 14.892 0 0 1 2.92.586 17.08 17.08 0 0 1 1.954.5 12.172 12.172 0 0 0-1.187 2.529c-.048.152-.093.3-.134.457a6.28 6.28 0 0 0-1.944-.047c-.511.031-1 .232-1.515.218a4.957 4.957 0 0 0-1.587.3c-.689.192-1.32.572-2.02.735a20.613 20.613 0 0 1 .347-2.091 16.559 16.559 0 0 1 .53-1.922c.157-.45.323-.903.523-1.34Z" data-name="Vector"/>
  </g>
  <g data-name="#6c55f6ff">
    <path fill="#6c55f6" d="M40.171 18.818a70.85 70.85 0 0 0 3.023 0 29.743 29.743 0 0 1-1.436 3.97h-.017c-1.133-.029-2.268.019-3.4-.049l.261-.487a29.849 29.849 0 0 0 1.569-3.434Z" data-name="Vector"/>
  </g>
  <g data-name="#4056ffff">
    <path fill="#4056ff" d="M30.201 20.445a5.332 5.332 0 0 1 .965-1.585c.1.146.2.294.289.444.252.424.477.863.741 1.28l.555.007a10.365 10.365 0 0 0-1 1.666q-.362 0-.721-.013a8.9 8.9 0 0 0-.829-1.799Z" data-name="Vector"/>
  </g>
  <g data-name="#ff0084ff">
    <path fill="#ff0084" d="M2.508 19.255a3.972 3.972 0 0 1 1.637.39 16.559 16.559 0 0 0-.53 1.922c-.333-.535-1.072-.404-1.607-.525.139-.603.309-1.199.5-1.787Z" data-name="Vector"/>
  </g>
  <g data-name="#ff0395ff">
    <path fill="#ff0395" d="m11.657 19.469.107-.186a7.918 7.918 0 0 1 1.37.952 10.456 10.456 0 0 0-1.082 2.32 9.539 9.539 0 0 0-1.58-.562 12.172 12.172 0 0 1 1.185-2.524Z" data-name="Vector"/>
  </g>
  <g data-name="#375affff">
    <path fill="#375aff" d="M32.753 20.592c.221 0 .442 0 .664-.005a13.082 13.082 0 0 0 2.074.045 3.464 3.464 0 0 1-.406 1.628h-3.333a10.365 10.365 0 0 1 1.001-1.668Z" data-name="Vector"/>
  </g>
  <g data-name="#ff0079ff">
    <path fill="#ff0079" d="M2.009 21.042c.535.122 1.274-.01 1.607.525a20.613 20.613 0 0 0-.347 2.091c0 .022-.009.067-.011.09a69.097 69.097 0 0 0-1.655-.227 20.467 20.467 0 0 1 .406-2.479Z" data-name="Vector"/>
  </g>
  <g data-name="#ff0283ff">
    <path fill="#ff0283" d="M10.471 21.992a9.538 9.538 0 0 1 1.581.562 10.09 10.09 0 0 0-.324 1.325c-.531-.158-1.066-.312-1.6-.474.06-.321.127-.64.209-.956.041-.157.086-.305.134-.457Z" data-name="Vector"/>
  </g>
  <g data-name="#ff00a9ff">
    <path fill="#ff00a9" d="M8.393 22.403a6.28 6.28 0 0 1 1.944.047c-.082.316-.15.635-.209.956-.073.415-.14.832-.189 1.252-.054.395-.11.789-.15 1.186-.6.346-1.273.525-1.86.891-.489.3-1.017.53-1.5.849-.534.35-1.2.517-1.6 1.052a3.977 3.977 0 0 1-1.192 1.067 19.862 19.862 0 0 1-.307-1.706 19.605 19.605 0 0 1-.163-2.237 19.451 19.451 0 0 1 .091-2.01c0-.022.007-.067.011-.09.7-.163 1.331-.543 2.023-.741a4.957 4.957 0 0 1 1.587-.3c.517.014 1-.187 1.515-.218Z" data-name="Vector"/>
  </g>
  <g data-name="#615df7ff">
    <path fill="#615df7" d="M36.4 25.932a41.48 41.48 0 0 0 1.941-3.191c1.132.068 2.267.02 3.4.049a33.35 33.35 0 0 1-1.61 3.224c-1.242-.073-2.489.027-3.731-.082Z" data-name="Vector"/>
  </g>
  <g data-name="#ff0275ff">
    <path fill="#ff0275" d="M10.132 23.406c.531.162 1.066.316 1.6.474a10.86 10.86 0 0 0-.141 1.556 14.122 14.122 0 0 0-1.659-.101c0-.226 0-.451.007-.677.05-.42.117-.837.193-1.252Z" data-name="Vector"/>
  </g>
  <g data-name="#ff006dff">
    <path fill="#ff006d" d="M1.514 25.679a16.918 16.918 0 0 1 .088-2.158c.552.07 1.1.142 1.656.226a19.451 19.451 0 0 0-.091 2.012 9.36 9.36 0 0 1-1.653-.08Z" data-name="Vector"/>
  </g>
  <g data-name="#ff059aff">
    <path fill="#ff059a" d="M9.789 25.844c.04-.4.1-.791.15-1.186-.009.225-.007.45-.007.677a12.716 12.716 0 0 0 .176 2.423c.031.149.065.3.1.447a8.5 8.5 0 0 0-2.055 1.397 10.672 10.672 0 0 1-2.091 1.556 6.708 6.708 0 0 0-1.542 1.363c-.032-.082-.1-.245-.126-.328a18.892 18.892 0 0 1-.634-1.96 16.313 16.313 0 0 1-.123-.531 3.977 3.977 0 0 0 1.2-1.066c.4-.536 1.066-.7 1.6-1.052.479-.318 1.006-.548 1.5-.849.586-.366 1.263-.545 1.86-.891Z" data-name="Vector"/>
  </g>
  <g data-name="#ff0566ff">
    <path fill="#ff0566" d="M9.93 25.333a14.124 14.124 0 0 1 1.66.1 10.555 10.555 0 0 0 .12 1.7c-.531.186-1.258.1-1.6.622a12.715 12.715 0 0 1-.18-2.422Z" data-name="Vector"/>
  </g>
  <g data-name="#ff0062ff">
    <path fill="#ff0062" d="M1.513 25.678a9.361 9.361 0 0 0 1.653.08 19.605 19.605 0 0 0 .163 2.237q-.844-.008-1.69.005a16.549 16.549 0 0 1-.126-2.322Z" data-name="Vector"/>
  </g>
  <g data-name="#5564f9ff">
    <path fill="#5564f9" d="M34.255 28.885a48.022 48.022 0 0 0 2.15-2.951c1.238.111 2.484 0 3.727.082a49.729 49.729 0 0 1-2.9 4.466c-1.407-.095-2.818-.017-4.227-.048.421-.511.847-1.019 1.25-1.545Z" data-name="Vector"/>
  </g>
  <g data-name="#ff0c58ff">
    <path fill="#ff0c58" d="M10.108 27.758c.344-.522 1.071-.436 1.6-.622a10.013 10.013 0 0 0 .313 1.367 6.187 6.187 0 0 0-1.474.846 19.831 19.831 0 0 1-.339-1.144 16.115 16.115 0 0 1-.1-.447Z" data-name="Vector"/>
  </g>
  <g data-name="#ff0158ff">
    <path fill="#ff0158" d="M1.641 28.001q.844-.008 1.69-.008c.072.573.185 1.14.307 1.706.038.176.079.354.123.53l-1.671.21a20.525 20.525 0 0 1-.449-2.438Z" data-name="Vector"/>
  </g>
  <g data-name="#ff158fff">
    <path fill="#ff158f" d="M10.209 28.205c.1.386.216.766.34 1.144a10.736 10.736 0 0 0 .436 1.116c.064.136.131.271.2.406-.849.879-1.739 1.718-2.54 2.642a12.153 12.153 0 0 0-1.287 1.386 7.827 7.827 0 0 1-.938 1.139 18.683 18.683 0 0 1-1.357-2.308c-.194-.4-.38-.8-.543-1.211a6.708 6.708 0 0 1 1.541-1.365A10.672 10.672 0 0 0 8.153 29.6a8.5 8.5 0 0 1 2.056-1.395Z" data-name="Vector"/>
  </g>
  <g data-name="#ff164dff">
    <path fill="#ff164d" d="M10.549 29.351a6.187 6.187 0 0 1 1.474-.846 9.628 9.628 0 0 0 .454 1.189c-.493.265-1 .509-1.492.774a10.737 10.737 0 0 1-.436-1.117Z" data-name="Vector"/>
  </g>
  <g data-name="#ffd200ff">
    <path fill="#ffd200" d="M30.895 29.275c.073-.15.114-.392.332-.385 1.009-.016 2.018.008 3.026-.007-.4.526-.829 1.034-1.25 1.545a58.518 58.518 0 0 1-1.508 1.707c-.555.623-1.151 1.208-1.736 1.8a15.29 15.29 0 0 0-.95-1.416 9.977 9.977 0 0 0 2.086-3.244Z" data-name="Vector"/>
  </g>
  <g data-name="#ffda00ff">
    <path fill="#ffda00" d="M40.301 28.881a4.085 4.085 0 0 1 1.136.07 19.385 19.385 0 0 1-1.647 5.186 19.7 19.7 0 0 1-3.5 5.183 8.127 8.127 0 0 0-1.926-2.919 52.265 52.265 0 0 0 5.937-7.52Z" data-name="Vector"/>
  </g>
  <g data-name="#ff2044ff">
    <path fill="#ff2044" d="M12.477 29.691a10.027 10.027 0 0 0 .534 1.025c-.45.33-.911.643-1.379.946-.157-.26-.306-.524-.447-.792-.069-.134-.136-.27-.2-.405.493-.265 1-.509 1.492-.774Z" data-name="Vector"/>
  </g>
  <g data-name="#ff054dff">
    <path fill="#ff054d" d="m2.089 30.443 1.671-.21a18.889 18.889 0 0 0 .634 1.961c-.521.2-1.023.444-1.536.665a20.742 20.742 0 0 1-.769-2.416Z" data-name="Vector"/>
  </g>
  <g data-name="#4869faff">
    <path fill="#4869fa" d="M31.497 32.138a54.233 54.233 0 0 0 1.508-1.707c1.409.034 2.82-.044 4.227.051q-.654.881-1.335 1.738h-.019c-1.46-.125-2.923.011-4.381-.082Z" data-name="Vector"/>
  </g>
  <g data-name="#ff2a3bff">
    <path fill="#ff2a3b" d="M11.632 31.664c.468-.303.929-.616 1.379-.946a10.146 10.146 0 0 0 .655.961 8.773 8.773 0 0 0-1.153 1.239l-.043-.057a11.465 11.465 0 0 1-.838-1.197Z" data-name="Vector"/>
  </g>
  <g data-name="#ff2882ff">
    <path fill="#ff2882" d="M11.186 30.871c.14.268.289.532.446.791a11.465 11.465 0 0 0 .838 1.2c-.688.9-1.512 1.69-2.263 2.539a7.29 7.29 0 0 1-.9 1.238 6.246 6.246 0 0 0-1.286 1.4l-.153-.168a20.035 20.035 0 0 1-1.113-1.359 19.114 19.114 0 0 1-.33-.474 7.826 7.826 0 0 0 .934-1.139 12.153 12.153 0 0 1 1.287-1.386c.801-.924 1.69-1.763 2.54-2.642Z" data-name="Vector"/>
  </g>
  <g data-name="#ff3633ff">
    <path fill="#ff3633" d="M12.513 32.915a8.773 8.773 0 0 1 1.153-1.236 11.5 11.5 0 0 0 .847.973c-.38.4-.8.773-1.2 1.152a11.073 11.073 0 0 1-.8-.889Z" data-name="Vector"/>
  </g>
  <g data-name="#ff0e44ff">
    <path fill="#ff0e44" d="M2.859 32.857c.513-.221 1.015-.465 1.536-.665l.126.328c.162.411.348.813.543 1.211a14.8 14.8 0 0 1-1.4.935 22.164 22.164 0 0 1-.805-1.809Z" data-name="Vector"/>
  </g>
  <g data-name="#406dfbff">
    <path fill="#406dfb" d="M29.761 33.937c.584-.592 1.177-1.177 1.735-1.8 1.458.1 2.922-.043 4.379.08-.571.743-1.2 1.445-1.821 2.143h-.016c-1.532-.107-3.071.052-4.6-.1l.323-.323Z" data-name="Vector"/>
  </g>
  <g data-name="#ffc200ff">
    <path fill="#ffc200" d="M27.281 33.82a10.425 10.425 0 0 0 1.53-1.3 15.289 15.289 0 0 1 .95 1.42l-.323.321c-.437.427-.871.859-1.332 1.259-.275-.565-.518-1.15-.825-1.7Z" data-name="Vector"/>
  </g>
  <g data-name="#ff4924ff">
    <path fill="#ff4924" d="M13.314 33.801c.4-.379.821-.752 1.2-1.152a10.425 10.425 0 0 0 2.054 1.575 4.108 4.108 0 0 0-.873 1.425l-.139-.081a11.426 11.426 0 0 1-1.266-.9q-.458-.376-.89-.786Z" data-name="Vector"/>
  </g>
  <g data-name="#ff3679ff">
    <path fill="#ff3679" d="m12.47 32.86.046.053a11.073 11.073 0 0 0 .8.889l.087.084c-.387.535-.887.979-1.27 1.518-.374.515-.717 1.05-1.117 1.544a13.709 13.709 0 0 1-1.772 2.3 18.905 18.905 0 0 1-.21-.2c-.351-.325-.694-.66-1.018-1.014a6.246 6.246 0 0 1 1.286-1.4 7.291 7.291 0 0 0 .9-1.238c.756-.846 1.58-1.636 2.268-2.536Z" data-name="Vector"/>
  </g>
  <g data-name="#ff173eff">
    <path fill="#ff173e" d="M3.667 34.666a14.794 14.794 0 0 0 1.4-.935c.233.47.489.927.759 1.377a8.478 8.478 0 0 1-1.34 1.023 24.553 24.553 0 0 1-.819-1.465Z" data-name="Vector"/>
  </g>
  <g data-name="#ff4271ff">
    <path fill="#ff4271" d="M13.399 33.889q.431.408.89.786a14.428 14.428 0 0 0-1.538 2.2 4.477 4.477 0 0 0-.437.989 15.131 15.131 0 0 1-.911 1.511c-.2.383-.36.784-.556 1.169q-.282-.2-.556-.414c-.361-.28-.716-.569-1.051-.878a13.709 13.709 0 0 0 1.772-2.3c.4-.494.747-1.029 1.12-1.543.382-.541.88-.985 1.267-1.52Z" data-name="Vector"/>
  </g>
  <g data-name="#ffb400ff">
    <path fill="#ffb400" d="M24.496 35.159a10.277 10.277 0 0 0 2.785-1.343c.307.554.55 1.139.825 1.709-.591.545-1.2 1.071-1.816 1.587q-.093-.325-.183-.648c-.43.126-.86.255-1.292.371a13.727 13.727 0 0 0-.319-1.676Z" data-name="Vector"/>
  </g>
  <g data-name="#3073fdff">
    <path fill="#3073fd" d="M.271 36.555a15.171 15.171 0 0 1 .763-2.63c-.083.872-.194 1.741-.227 2.617-.18.004-.358.007-.536.013Zm27.835-1.028c.461-.404.895-.837 1.333-1.264 1.528.149 3.068-.01 4.6.1-.154.176-.3.355-.466.524-.8.811-1.6 1.613-2.4 2.415-.173.172-.358.329-.542.487-1.672-.126-3.349.048-5.014-.112.224-.188.451-.374.673-.564a48.937 48.937 0 0 0 1.816-1.586Z" data-name="Vector"/>
  </g>
  <g data-name="#ff5c16ff">
    <path fill="#ff5c16" d="M15.693 35.653a4.108 4.108 0 0 1 .873-1.428c.225.129.454.252.688.365a30.085 30.085 0 0 1-.678 1.525c-.3-.144-.594-.3-.883-.462Z" data-name="Vector"/>
  </g>
  <g data-name="#ff660cff">
    <path fill="#ff660c" d="M17.255 34.592c.309.148.625.281.946.4a12.584 12.584 0 0 0-.651 1.53c-.254-.095-.506-.2-.753-.3l-.219-.105c.24-.501.465-1.011.677-1.525Z" data-name="Vector"/>
  </g>
  <g data-name="#ff4f69ff">
    <path fill="#ff4f69" d="M14.29 34.672a11.425 11.425 0 0 0 1.265.9c-.538 1-1.133 1.975-1.617 3.006a10.085 10.085 0 0 1-.459 1.164 20.409 20.409 0 0 1-.953 1.872c-.367-.218-.737-.434-1.094-.666a20.243 20.243 0 0 1-.585-.406c.2-.384.358-.785.557-1.17a15.127 15.127 0 0 0 .911-1.51 4.478 4.478 0 0 1 .432-.99 14.429 14.429 0 0 1 1.543-2.2Z" data-name="Vector"/>
  </g>
  <g data-name="#ff7200ff">
    <path fill="#ff7200" d="M18.202 34.992a9.657 9.657 0 0 0 1.17.343 50.388 50.388 0 0 0-.342 1.634l-.174-.039a12.424 12.424 0 0 1-1.306-.41 12.584 12.584 0 0 1 .652-1.528Z" data-name="Vector"/>
  </g>
  <g data-name="#ff2037ff">
    <path fill="#ff2037" d="M4.486 36.125a8.478 8.478 0 0 0 1.336-1.018c.191.316.4.624.6.931.108.159.217.318.33.474-.425.359-.842.728-1.244 1.112-.357-.487-.7-.986-1.022-1.499Z" data-name="Vector"/>
  </g>
  <g data-name="#ffa300ff">
    <path fill="#ffa300" d="M23.189 35.459a10.28 10.28 0 0 0 1.306-.3 13.727 13.727 0 0 1 .318 1.677c-.295.077-.589.161-.885.229-.2.041-.408.073-.613.1a13.617 13.617 0 0 1-.126-1.706Z" data-name="Vector"/>
  </g>
  <g data-name="#ff7f00ff">
    <path fill="#ff7f00" d="M19.371 35.335a11.014 11.014 0 0 0 1.264.2c-.1.552-.176 1.106-.23 1.664-.462-.05-.92-.134-1.375-.23.1-.546.221-1.091.341-1.634Z" data-name="Vector"/>
  </g>
  <g data-name="#ff9700ff">
    <path fill="#ff9700" d="M21.945 35.575a10.141 10.141 0 0 0 1.249-.12 13.617 13.617 0 0 0 .126 1.707c-.51.055-1.018.112-1.526.123.047-.57.1-1.141.151-1.71Z" data-name="Vector"/>
  </g>
  <g data-name="#ff5d60ff">
    <path fill="#ff5d60" d="m15.556 35.574.139.081c.289.162.583.318.883.462l.219.1a15.167 15.167 0 0 0-.8 1.989 17.868 17.868 0 0 1-.752 1.686 11.782 11.782 0 0 1-1.024 2.562 14.129 14.129 0 0 1-1.46-.7l-.234-.139a20.406 20.406 0 0 0 .953-1.872 10.083 10.083 0 0 0 .459-1.163c.488-1.031 1.079-2.006 1.617-3.006Z" data-name="Vector"/>
  </g>
  <g data-name="#ff8c00ff">
    <path fill="#ff8c00" d="M20.636 35.537a11.64 11.64 0 0 0 1.308.038c-.052.57-.1 1.141-.151 1.711-.146 0-.292 0-.437-.005a14.31 14.31 0 0 1-.95-.08c.053-.558.135-1.112.23-1.664Z" data-name="Vector"/>
  </g>
  <g data-name="#ff6e54ff">
    <path fill="#ff6e54" d="M16.799 36.217c.247.109.5.209.753.3a12.425 12.425 0 0 0 1.304.413 4.624 4.624 0 0 0-.35 1.316 8.3 8.3 0 0 1-.642 2.343 5.738 5.738 0 0 0-.2 1.317c-.058.37-.143.736-.207 1.106-.4.2-.806.4-1.222.573.132-.084.263-.174.394-.263a24.81 24.81 0 0 1-2.43-.841l.021-.028a11.782 11.782 0 0 0 1.025-2.56 17.864 17.864 0 0 0 .754-1.687 15.167 15.167 0 0 1 .8-1.989Z" data-name="Vector"/>
  </g>
  <g data-name="#ffa91eff">
    <path fill="#ffa91e" d="M24.814 36.834c.433-.116.862-.245 1.293-.371q.09.323.183.648c-.222.19-.449.376-.673.564-.488.406-.988.788-1.488 1.174-.506-.477-.223-1.192-.2-1.786.3-.067.591-.152.885-.229Z" data-name="Vector"/>
  </g>
  <g data-name="#ffca00ff">
    <path fill="#ffca00" d="M30.078 40.438a57.358 57.358 0 0 0 4.286-4.038 8.127 8.127 0 0 1 1.922 2.919 20.508 20.508 0 0 1-5.158 3.963 27.169 27.169 0 0 0-1.05-2.844Z" data-name="Vector"/>
  </g>
  <g data-name="#2476fdff">
    <path fill="#2476fd" d="M.27 36.553c.178-.006.356-.013.532-.013a14.572 14.572 0 0 0 .092 2.353c-.298-.01-.592-.021-.892-.029a15.144 15.144 0 0 1 .268-2.311Z" data-name="Vector"/>
  </g>
  <g data-name="#ff2a30ff">
    <path fill="#ff2a30" d="M5.512 37.626c.4-.384.819-.753 1.244-1.112.348.471.724.92 1.113 1.358a14.451 14.451 0 0 1-1.157 1.202c-.427-.46-.817-.951-1.2-1.448Z" data-name="Vector"/>
  </g>
  <g data-name="#ff8245ff">
    <path fill="#ff8245" d="m18.86 36.93.17.039c.455.1.913.18 1.376.231.315.034.632.065.951.08-.129.678-.172 1.366-.272 2.047-.082.6-.413 1.176-.248 1.794a41.908 41.908 0 0 1-3.377 1.89c.064-.369.15-.735.207-1.106a5.738 5.738 0 0 1 .193-1.316 8.3 8.3 0 0 0 .642-2.343 4.624 4.624 0 0 1 .358-1.316Z" data-name="Vector"/>
  </g>
  <g data-name="#ff9632ff">
    <path fill="#ff9632" d="M23.315 37.166c.205-.023.41-.056.613-.1-.022.593-.305 1.309.2 1.786-.57.434-1.16.844-1.746 1.258q-.766.52-1.546 1.012c-.166-.618.165-1.195.248-1.794.1-.681.143-1.37.272-2.047.145.004.29.006.434.005.511-.012 1.019-.068 1.525-.12Z" data-name="Vector"/>
  </g>
  <g data-name="#1878feff">
    <path fill="#1878fe" d="M24.123 38.85c.502-.386 1.008-.768 1.493-1.175 1.661.16 3.342-.015 5.009.109a36.975 36.975 0 0 1-2.88 2.439 19.1 19.1 0 0 0-2.73-.085c-.879-.003-1.759.013-2.638-.03.586-.414 1.176-.824 1.746-1.258Z" data-name="Vector"/>
  </g>
  <g data-name="#ff3529ff">
    <path fill="#ff3529" d="M6.714 39.069a14.453 14.453 0 0 0 1.155-1.2l.145.164c.324.353.667.688 1.014 1.018a9.4 9.4 0 0 0-1.121 1.226c-.418-.381-.81-.789-1.193-1.208Z" data-name="Vector"/>
  </g>
  <g data-name="#1179feff">
    <path fill="#1179fe" d="M0 38.864c.3.009.6.019.895.03.063.429.138.857.233 1.281l-1.079.037H.033C0 39.764 0 39.313 0 38.864Z" data-name="Vector"/>
  </g>
  <g data-name="#ff3f23ff">
    <path fill="#ff3f23" d="M9.03 39.051c.053.049.158.148.21.2.335.308.69.6 1.05.878-.4.4-.8.788-1.222 1.16-.396-.329-.794-.655-1.162-1.013a9.4 9.4 0 0 1 1.124-1.225Z" data-name="Vector"/>
  </g>
  <g data-name="#0082ffff">
    <path fill="#0082ff" d="M.035 40.209c.36-.016.733-.023 1.092-.035a7.07 7.07 0 0 0 2.475 3.986 8.016 8.016 0 0 0 5.386 1.379 19.021 19.021 0 0 0 5.4-1.207 32.144 32.144 0 0 0 1.848-.748c.416-.172.82-.37 1.222-.573a40.537 40.537 0 0 0 3.376-1.89q.78-.493 1.543-1.012c.879.043 1.759.027 2.638.029a19.1 19.1 0 0 1 2.73.085c-.722.6-1.492 1.136-2.256 1.679l-.014.01a36.645 36.645 0 0 1-10.45 5.153 17.888 17.888 0 0 1-7.745.682 8.889 8.889 0 0 1-5.123-2.566 8.327 8.327 0 0 1-2.122-4.972Z" data-name="Vector"/>
  </g>
  <g data-name="#ff4a1bff">
    <path fill="#ff4a1b" d="M9.068 41.289c.421-.372.824-.76 1.222-1.16q.274.211.556.414c.192.138.387.274.585.406a9.439 9.439 0 0 1-1.033 1.311 22.364 22.364 0 0 1-1.33-.971Z" data-name="Vector"/>
  </g>
  <g data-name="#ffb700ff">
    <path fill="#ffb700" d="M25.37 43.947c1.636-1.075 3.183-2.283 4.707-3.51a27.169 27.169 0 0 1 1.05 2.844 20.242 20.242 0 0 1-5.58 2.006q-.077-.673-.177-1.34Z" data-name="Vector"/>
  </g>
  <g data-name="#ff5316ff">
    <path fill="#ff5316" d="M10.398 42.259a9.439 9.439 0 0 0 1.034-1.312c.357.233.726.448 1.094.666l.234.134c-.275.482-.559.958-.843 1.436q-.779-.431-1.519-.924Z" data-name="Vector"/>
  </g>
  <g data-name="#ff5e0bff">
    <path fill="#ff5e0b" d="M12.761 41.749a14.13 14.13 0 0 0 1.457.7l-.018.032a5.316 5.316 0 0 0-.859 1.416 19.463 19.463 0 0 1-1.423-.712c.284-.478.568-.954.843-1.436Z" data-name="Vector"/>
  </g>
  <g data-name="#c0c1c7ff">
    <path fill="#c0c1c7" d="m25.489 41.904-.012.008Z" data-name="Vector"/>
  </g>
  <g data-name="#ff6900ff">
    <path fill="#ff6900" d="M13.34 43.899a5.316 5.316 0 0 1 .859-1.416 24.808 24.808 0 0 0 2.433.841c-.131.089-.262.178-.392.259-.607.271-1.225.516-1.848.748a19.054 19.054 0 0 1-1.052-.432Z" data-name="Vector"/>
  </g>
  <g data-name="#ffa500ff">
    <path fill="orange" d="M22.621 45.629c.888-.605 1.857-1.082 2.749-1.682q.1.668.177 1.339a17.889 17.889 0 0 1-2.926.343Z" data-name="Vector"/>
  </g>
</svg>
