<svg xmlns="http://www.w3.org/2000/svg" width="146.242" height="36.703">
  <path fill="#a4a4a4" d="M44.07 22.494V2.409h5.631l3.592 11.231.314 1.083.684 2.694.9-3.222 3.69-11.786h5.6v20.085h-3.733V10.321q0-.413.007-.827t.135-3.55q-.776 2.94-1.242 4.514l-.079.263q-.1.316-.176.568L55.77 22.494h-2.99L49.159 11.29l-1.525-5.35q.171 3.307.171 4.376v12.178Zm24.451-.934a4.559 4.559 0 0 1-1.251-3.428 4.406 4.406 0 0 1 1.561-3.649 7.2 7.2 0 0 1 4.526-1.283l3.313-.06v-.784a3.865 3.865 0 0 0-.527-2.245 1.978 1.978 0 0 0-1.725-.734 2.269 2.269 0 0 0-1.632.506 2.7 2.7 0 0 0-.649 1.675l-4.177-.2a4.97 4.97 0 0 1 2.06-3.414 7.9 7.9 0 0 1 4.569-1.162 6.461 6.461 0 0 1 4.5 1.44 5.25 5.25 0 0 1 1.582 4.091v5.616a3.818 3.818 0 0 0 .292 1.789 1.045 1.045 0 0 0 .976.492 4.5 4.5 0 0 0 .884-.086v2.167q-.356.086-.641.157t-.57.114q-.285.043-.606.071t-.748.029a2.987 2.987 0 0 1-2.231-.741 3.536 3.536 0 0 1-.857-2.181h-.086a5.455 5.455 0 0 1-5.075 3.036 4.8 4.8 0 0 1-3.492-1.219Zm6.493-2.088a3.494 3.494 0 0 0 1.219-1.418 4.315 4.315 0 0 0 .437-1.914v-.784l-2.053.029a6.2 6.2 0 0 0-1.981.306 1.852 1.852 0 0 0-.891.763 2.654 2.654 0 0 0-.306 1.368 2.3 2.3 0 0 0 .506 1.632 1.768 1.768 0 0 0 1.347.535 3.051 3.051 0 0 0 1.718-.513Zm9.647 3.022V10.691q0-1.269-.036-2.117t-.078-1.5h3.823q.043.257.114 1.561t.071 1.732h.057a10.873 10.873 0 0 1 1.038-2.292 2.95 2.95 0 0 1 1.083-.984 3.425 3.425 0 0 1 1.568-.321 3.029 3.029 0 0 1 1.24.214v3.35a8.061 8.061 0 0 0-1.711-.214 2.671 2.671 0 0 0-2.33 1.213 6.35 6.35 0 0 0-.834 3.592v7.569Zm12.562-.706a3.982 3.982 0 0 1-.955-2.915V9.779h-1.953V7.071h2.155l1.252-3.621h2.508v3.621h2.922v2.708h-2.922v8.011a2.642 2.642 0 0 0 .428 1.661 1.6 1.6 0 0 0 1.326.535 6.477 6.477 0 0 0 1.34-.2v2.48a10.858 10.858 0 0 1-3.378.485 3.667 3.667 0 0 1-2.723-.962Zm8.471-17.5V1.34h4.006v2.951Zm0 18.2V7.071h4.006v15.423Zm8.086 0V10.52q0-1.24-.036-2.031t-.074-1.418h3.82q.043.271.114 1.447t.066 1.622h.057a5.878 5.878 0 0 1 2.043-2.571 5.236 5.236 0 0 1 2.922-.8 4.714 4.714 0 0 1 3.763 1.511 6.561 6.561 0 0 1 1.311 4.419v9.793h-3.996V13.84q0-4.063-2.751-4.063a2.753 2.753 0 0 0-2.345 1.247 5.376 5.376 0 0 0-.891 3.2v8.268Zm18.962-1.848a8.128 8.128 0 0 1-2.053-5.873 8.083 8.083 0 0 1 2.053-5.852 7.6 7.6 0 0 1 5.745-2.131 7.649 7.649 0 0 1 5.766 2.06 8.19 8.19 0 0 1 1.989 5.923 8.057 8.057 0 0 1-2.081 5.88 7.679 7.679 0 0 1-5.759 2.131 7.475 7.475 0 0 1-5.66-2.138Zm9.309-5.873a6.918 6.918 0 0 0-.9-3.991 3.021 3.021 0 0 0-2.608-1.236q-3.649 0-3.649 5.232a7.139 7.139 0 0 0 .891 3.927 2.9 2.9 0 0 0 2.573 1.341q3.692 0 3.692-5.274Z"/>
  <path fill="#a4a4a4" d="M81.896 34.246a3.268 3.268 0 0 1-.744-2.27 3.294 3.294 0 0 1 .733-2.254 2.4 2.4 0 0 1 1.892-.834 2.041 2.041 0 0 1 1.282.411 2.534 2.534 0 0 1 .8 1.017l-.845.277a1.418 1.418 0 0 0-1.252-.865 1.352 1.352 0 0 0-1.163.609 2.783 2.783 0 0 0-.43 1.634 2.776 2.776 0 0 0 .434 1.645 1.357 1.357 0 0 0 1.159.612 1.314 1.314 0 0 0 .834-.284 1.652 1.652 0 0 0 .527-.7l.882.277a2.737 2.737 0 0 1-.288.52 3.052 3.052 0 0 1-.441.494 1.992 1.992 0 0 1-.654.393 2.388 2.388 0 0 1-.845.146 2.422 2.422 0 0 1-1.881-.828Zm5.743.682a1.67 1.67 0 0 1-.576-.374 1.975 1.975 0 0 1-.366-.538 2.522 2.522 0 0 1-.2-.613 3.381 3.381 0 0 1-.056-.617 2.606 2.606 0 0 1 .511-1.632 1.758 1.758 0 0 1 1.484-.666 1.75 1.75 0 0 1 1.481.666 2.606 2.606 0 0 1 .509 1.63 3.239 3.239 0 0 1-.056.6 2.63 2.63 0 0 1-.2.609 2.073 2.073 0 0 1-.359.546 1.615 1.615 0 0 1-.572.385 2.054 2.054 0 0 1-.8.15 2.08 2.08 0 0 1-.8-.146Zm1.507-1.03a1.708 1.708 0 0 0 .306-1.114 1.719 1.719 0 0 0-.306-1.126.91.91 0 0 0-.71-.363.921.921 0 0 0-.714.363 1.7 1.7 0 0 0-.31 1.125 1.708 1.708 0 0 0 .306 1.115.879.879 0 0 0 1.428 0Zm2.139 1.04v-6.11h.942v6.11Zm3-.011a1.67 1.67 0 0 1-.576-.374 1.975 1.975 0 0 1-.366-.538 2.523 2.523 0 0 1-.2-.613 3.381 3.381 0 0 1-.056-.617 2.606 2.606 0 0 1 .509-1.63 1.758 1.758 0 0 1 1.488-.666 1.75 1.75 0 0 1 1.481.666 2.606 2.606 0 0 1 .509 1.63 3.24 3.24 0 0 1-.056.6 2.63 2.63 0 0 1-.2.609 2.073 2.073 0 0 1-.359.546 1.615 1.615 0 0 1-.572.385 2.054 2.054 0 0 1-.8.15 2.08 2.08 0 0 1-.8-.146Zm1.509-1.029a1.708 1.708 0 0 0 .307-1.114 1.719 1.719 0 0 0-.307-1.125.91.91 0 0 0-.71-.363.921.921 0 0 0-.714.363 1.7 1.7 0 0 0-.31 1.125 1.708 1.708 0 0 0 .307 1.114.879.879 0 0 0 1.428 0Zm2.058 1.04v-4.315h.912v.464a1.326 1.326 0 0 1 .408-.419 1.1 1.1 0 0 1 .632-.179 1.381 1.381 0 0 1 .561.1v.86a1.855 1.855 0 0 0-.561-.09.846.846 0 0 0-.744.378 1.754 1.754 0 0 0-.258 1.006v2.2Zm3.436-.142a1.9 1.9 0 0 1-.752-.755l.681-.4a1.358 1.358 0 0 0 1.167.658.985.985 0 0 0 .557-.138.426.426 0 0 0 .206-.37.421.421 0 0 0-.168-.329 1.224 1.224 0 0 0-.355-.213q-.187-.071-.561-.191-.067-.022-.1-.03a4.232 4.232 0 0 1-.452-.176 2.426 2.426 0 0 1-.385-.232.947.947 0 0 1-.307-.366 1.182 1.182 0 0 1-.1-.512 1.071 1.071 0 0 1 .474-.914 1.984 1.984 0 0 1 1.189-.34 1.927 1.927 0 0 1 1 .28 1.839 1.839 0 0 1 .7.714l-.628.381a1.294 1.294 0 0 0-1.069-.606.863.863 0 0 0-.527.138.433.433 0 0 0-.183.363.439.439 0 0 0 .161.333 1.089 1.089 0 0 0 .333.213q.172.067.486.172a1.22 1.22 0 0 1 .12.037q1.331.426 1.331 1.286a1.132 1.132 0 0 1-.445.9 1.918 1.918 0 0 1-1.26.37 2.233 2.233 0 0 1-1.118-.277Zm6.386.131a1.67 1.67 0 0 1-.576-.374 1.975 1.975 0 0 1-.366-.538 2.523 2.523 0 0 1-.2-.613 3.381 3.381 0 0 1-.056-.617 2.606 2.606 0 0 1 .509-1.63 1.988 1.988 0 0 1 2.969 0 2.606 2.606 0 0 1 .509 1.63 3.24 3.24 0 0 1-.056.6 2.63 2.63 0 0 1-.2.609 2.073 2.073 0 0 1-.359.546 1.615 1.615 0 0 1-.572.385 2.054 2.054 0 0 1-.8.15 2.08 2.08 0 0 1-.8-.146Zm1.506-1.029a1.708 1.708 0 0 0 .307-1.114 1.719 1.719 0 0 0-.307-1.125.91.91 0 0 0-.71-.363.921.921 0 0 0-.714.363 1.7 1.7 0 0 0-.31 1.125 1.708 1.708 0 0 0 .306 1.114.879.879 0 0 0 1.428 0Zm2.378 1.04v-3.51h-.658v-.805h.658v-.464a1.356 1.356 0 0 1 .333-1 1.269 1.269 0 0 1 .938-.331h.68v.8h-.546a.4.4 0 0 0-.34.142.758.758 0 0 0-.108.456v.4h.9v.802h-.9v3.51Zm4.322 1.765v-.793h.135a.954.954 0 0 0 .55-.146.986.986 0 0 0 .34-.5l.142-.436-1.615-4.21h1.039l.74 2.221q.187.613.284.995h.03l.277-.995.681-2.221h1.032l-1.788 4.888a1.9 1.9 0 0 1-.617.927 1.576 1.576 0 0 1-.938.269Zm5.156-1.775a1.67 1.67 0 0 1-.576-.374 1.975 1.975 0 0 1-.366-.538 2.522 2.522 0 0 1-.2-.613 3.381 3.381 0 0 1-.056-.617 2.606 2.606 0 0 1 .509-1.63 1.988 1.988 0 0 1 2.969 0 2.606 2.606 0 0 1 .509 1.63 3.239 3.239 0 0 1-.056.6 2.63 2.63 0 0 1-.2.609 2.073 2.073 0 0 1-.359.546 1.615 1.615 0 0 1-.572.385 2.054 2.054 0 0 1-.8.15 2.08 2.08 0 0 1-.8-.146Zm1.507-1.03a1.708 1.708 0 0 0 .309-1.114 1.719 1.719 0 0 0-.307-1.125.91.91 0 0 0-.71-.363.921.921 0 0 0-.714.363 1.7 1.7 0 0 0-.31 1.125 1.708 1.708 0 0 0 .307 1.114.879.879 0 0 0 1.428 0Zm2.958 1.1a1.535 1.535 0 0 1-.46-.254 1.191 1.191 0 0 1-.359-.527 2.342 2.342 0 0 1-.135-.838v-2.756h.95v2.632q0 1.01.71 1.01a.755.755 0 0 0 .666-.363 1.532 1.532 0 0 0 .239-.864v-2.415h.94v4.315h-.91v-.5h-.007a1.1 1.1 0 0 1-.4.434 1.276 1.276 0 0 1-.737.2 1.562 1.562 0 0 1-.5-.079Zm3.586-.056v-4.319h.912v.464a1.326 1.326 0 0 1 .408-.419 1.1 1.1 0 0 1 .632-.179 1.381 1.381 0 0 1 .561.1v.86a1.855 1.855 0 0 0-.561-.09.846.846 0 0 0-.744.378 1.754 1.754 0 0 0-.258 1.006v2.2Zm4.958 0v-6.114h.942v6.11Zm2.1-4.958V28.94h1.017v1.04Zm.045 4.958v-4.319h.935v4.315Zm2.378 0v-3.514h-.658v-.805h.658v-.464a1.356 1.356 0 0 1 .333-1 1.269 1.269 0 0 1 .939-.331h.681v.8h-.546a.4.4 0 0 0-.34.142.758.758 0 0 0-.108.456v.4h.9v.802h-.9v3.51Zm2.793-.494a2.4 2.4 0 0 1-.572-1.683 2.34 2.34 0 0 1 .572-1.656 1.88 1.88 0 0 1 1.44-.617 1.8 1.8 0 0 1 1.406.621 2.336 2.336 0 0 1 .553 1.615 3.2 3.2 0 0 1-.022.381h-2.991a1.285 1.285 0 0 0 .3.849 1 1 0 0 0 .811.355 1.142 1.142 0 0 0 .632-.176 1.165 1.165 0 0 0 .415-.452l.793.269a1.869 1.869 0 0 1-.681.8 2.035 2.035 0 0 1-1.174.322 1.906 1.906 0 0 1-1.477-.628Zm2.172-2.845a.865.865 0 0 0-.733-.348.908.908 0 0 0-.752.355 1.341 1.341 0 0 0-.288.834h2.034a1.359 1.359 0 0 0-.262-.841Z" opacity=".596"/>
  <path fill="#a4a4a4" d="M8.615 4.829v29.787a.81.81 0 0 1-.386.693.765.765 0 0 1-.777.007L.4 31.29a.809.809 0 0 1-.4-.7V.804A.81.81 0 0 1 .386.116a.765.765 0 0 1 .777-.01l7.048 4.02a.809.809 0 0 1 .404.703Z"/>
  <path fill="#a4a4a4" d="M20.101 4.83v29.787a.81.81 0 0 1-.386.693.765.765 0 0 1-.777.007l-7.052-4.026a.809.809 0 0 1-.4-.7V.805a.81.81 0 0 1 .386-.688.765.765 0 0 1 .777-.01l7.048 4.02a.809.809 0 0 1 .404.703Zm11.485 0v29.787a.81.81 0 0 1-.386.693.765.765 0 0 1-.777.007l-7.052-4.026a.809.809 0 0 1-.4-.7V.805a.81.81 0 0 1 .386-.688.765.765 0 0 1 .777-.01l7.048 4.02a.809.809 0 0 1 .404.703Z" data-name="Path"/>
</svg>
