<svg xmlns="http://www.w3.org/2000/svg" width="152.138" height="34.939">
    <path fill="#a4a4a4"
          d="m45.527 18.273 2.83-1.118c.594 1.887 2.306 3 4.857 3 2.306 0 3.808-.978 3.808-2.69 0-4.436-10.587-2.441-10.587-8.765 0-3.179 2.621-5.136 6.674-5.136 3.354 0 5.765 1.363 6.569 3.808L56.847 8.49a3.627 3.627 0 0 0-3.773-2.41c-2.131 0-3.354.943-3.354 2.446 0 1.9 2.255 2.462 4.69 3.177l.318.094c2.766.825 5.648 1.923 5.648 5.429s-2.9 5.52-7.267 5.52c-3.808 0-6.6-1.537-7.582-4.472Zm31.818 10.342v-9.294a7.888 7.888 0 0 1-6.708 3.424c-5.206 0-9.049-4.088-9.049-9.573s3.739-9.608 8.979-9.608a7.925 7.925 0 0 1 6.988 3.808V3.948h2.76v24.667Zm.1-15.443c0-4.088-2.655-6.988-6.464-6.988-3.7 0-6.464 2.97-6.464 6.988 0 3.983 2.76 6.953 6.464 6.953 3.843 0 6.464-2.865 6.464-6.953Zm6.417 2.131V3.948h2.97v11.006a4.788 4.788 0 0 0 5.136 5.136 4.952 4.952 0 0 0 5.241-4.577V3.948h2.97v18.413h-2.83v-2.62a7.489 7.489 0 0 1-6.149 3c-4.717 0-7.337-3.075-7.337-7.442Zm18.965-2.166c0-5.45 3.843-9.4 9.049-9.4a7.661 7.661 0 0 1 6.918 3.773V3.948h2.76v18.413h-2.76v-3.532a7.639 7.639 0 0 1-6.918 3.913c-5.241 0-9.049-4.088-9.049-9.608Zm15.862 0c0-4.088-2.62-6.953-6.464-6.953-3.7 0-6.464 3-6.464 6.953 0 4.018 2.76 6.988 6.464 6.988 3.808 0 6.464-2.865 6.464-6.988Zm6.662 9.224V3.948h2.8v2.691a7.151 7.151 0 0 1 5.865-3.075v2.765c-3.354.035-5.7 2.306-5.7 4.926v11.106Zm8.409-9.189a9.414 9.414 0 0 1 9.293-9.643 8.962 8.962 0 0 1 9.084 9.224c0 .524-.035 1.153-.07 1.5h-15.3a6.545 6.545 0 0 0 6.6 5.73c3 0 4.682-1.153 5.59-3.284l2.585 1.572c-1.363 2.62-3.913 4.507-8.281 4.507a9.2 9.2 0 0 1-9.5-9.608Zm9.4-7.058a6.318 6.318 0 0 0-6.359 5.555h12.3c-.454-3.459-2.865-5.555-5.94-5.555ZM87.738 33.547a.919.919 0 0 1-.35-.182 2.062 2.062 0 0 1-.5-1.024q-.074-.274-.119-.409a1.333 1.333 0 0 0-.452-.708 1.527 1.527 0 0 0-.862-.2q-.123 0-.393.012h-.029v2.002l.143.119.479.041v.343h-1.989v-.344l.475-.041.143-.119v-4.618l-.143-.119-.475-.049v-.335h2.137a2.544 2.544 0 0 1 1.523.37 1.327 1.327 0 0 1 .5 1.136 1.231 1.231 0 0 1-.34.895 1.964 1.964 0 0 1-1.015.5 1.893 1.893 0 0 1 .528.223 1.042 1.042 0 0 1 .336.342 2.223 2.223 0 0 1 .231.659 4.654 4.654 0 0 0 .156.579.844.844 0 0 0 .348.469 1.6 1.6 0 0 0 .741.125h.075v.319q-.188.037-.348.055a2.649 2.649 0 0 1-.3.018 1.82 1.82 0 0 1-.5-.059Zm-1.106-3.176a1.044 1.044 0 0 0 .354-.88 1.079 1.079 0 0 0-.364-.909 1.94 1.94 0 0 0-1.179-.282h-.405v2.338l.242.006h.221a1.858 1.858 0 0 0 1.131-.273Zm2.423 2.673a2.13 2.13 0 0 1-.518-1.488 2.2 2.2 0 0 1 .543-1.537 1.8 1.8 0 0 1 1.394-.6 1.423 1.423 0 0 1 1.1.444 1.721 1.721 0 0 1 .407 1.21v.156a.811.811 0 0 1-.01.1h-2.713v.094a1.9 1.9 0 0 0 .381 1.251 1.264 1.264 0 0 0 1.027.466 1.786 1.786 0 0 0 .62-.119 3.454 3.454 0 0 0 .7-.368v.463a3.1 3.1 0 0 1-.774.373 2.661 2.661 0 0 1-.807.127 1.736 1.736 0 0 1-1.349-.571Zm2.18-2.193a1.193 1.193 0 0 0-.223-.78.793.793 0 0 0-.649-.27.948.948 0 0 0-.723.334 1.356 1.356 0 0 0-.342.845h1.937Zm1.475 2.453a1.056 1.056 0 0 1-.293-.778.974.974 0 0 1 .44-.843 7.1 7.1 0 0 1 2.009-.684v-.266a1.167 1.167 0 0 0-.172-.733.746.746 0 0 0-.6-.2 1.526 1.526 0 0 0-.315.033 2.059 2.059 0 0 0-.323.1v.7h-.576a.293.293 0 0 1-.206-.062.286.286 0 0 1-.056-.2.786.786 0 0 1 .473-.68 2.445 2.445 0 0 1 1.222-.27 1.349 1.349 0 0 1 .958.287 1.23 1.23 0 0 1 .3.921v2.433l.143.135.442.041v.3h-1.179l-.111-.484a3.81 3.81 0 0 1-.743.411 1.732 1.732 0 0 1-.633.133 1.05 1.05 0 0 1-.78-.295Zm1.568-.25a4.061 4.061 0 0 0 .588-.283v-1.478a4.876 4.876 0 0 0-1.382.532.751.751 0 0 0-.33.635.686.686 0 0 0 .182.5.653.653 0 0 0 .489.186 1.334 1.334 0 0 0 .452-.094Zm1.988.487v-.3l.5-.041.143-.135v-5.133h-.643v-.261l1.019-.3h.319v5.691l.151.135.479.041v.3Zm4.182 0v-.344l.475-.041.143-.119v-4.618l-.139-.119-.475-.049v-.335h4.014v1.224h-.471l-.119-.712-.11-.128h-1.943v2.121h1.376l.119-.119.082-.61h.4v1.847h-.4l-.082-.606-.119-.127h-1.376v2.35h2.248l.119-.135.143-.848h.433v1.368Zm5.135.031a2.465 2.465 0 0 1-.51-.133V32.35h.4l.1.712a1.5 1.5 0 0 0 .354.151 1.341 1.341 0 0 0 .358.049.841.841 0 0 0 .571-.186.616.616 0 0 0 .215-.489.608.608 0 0 0-.147-.42 2.38 2.38 0 0 0-.7-.42 2.694 2.694 0 0 1-.858-.532.885.885 0 0 1-.227-.618 1.042 1.042 0 0 1 .389-.868 1.732 1.732 0 0 1 1.1-.307 2.773 2.773 0 0 1 .526.047 2.278 2.278 0 0 1 .457.137v.95h-.414l-.066-.594a1.714 1.714 0 0 0-.319-.135 1.058 1.058 0 0 0-.3-.045.756.756 0 0 0-.512.16.559.559 0 0 0-.184.446.573.573 0 0 0 .147.4 1.907 1.907 0 0 0 .565.364q.066.033.2.094a3.254 3.254 0 0 1 .688.393.8.8 0 0 1 .237.309 1.012 1.012 0 0 1 .082.411 1.119 1.119 0 0 1-.416.923 1.794 1.794 0 0 1-1.153.334 3.767 3.767 0 0 1-.579-.043Zm3.143-.188a.9.9 0 0 1-.194-.665v-2.707h-.528v-.262l.553-.242.36-.782h.311v.893h1.277v.393h-1.273v2.211a1.232 1.232 0 0 0 .151.731.67.67 0 0 0 .545.186 2.506 2.506 0 0 0 .28-.016 2.542 2.542 0 0 0 .3-.053v.311a4.246 4.246 0 0 1-.565.137 3.217 3.217 0 0 1-.536.047.988.988 0 0 1-.678-.182Zm2.234-.08a1.056 1.056 0 0 1-.293-.778.974.974 0 0 1 .44-.843 7.1 7.1 0 0 1 2.008-.684v-.266a1.167 1.167 0 0 0-.172-.733.746.746 0 0 0-.6-.2 1.526 1.526 0 0 0-.315.033 2.059 2.059 0 0 0-.323.1v.7h-.577a.293.293 0 0 1-.207-.055.286.286 0 0 1-.055-.2.786.786 0 0 1 .473-.68 2.445 2.445 0 0 1 1.222-.27 1.349 1.349 0 0 1 .958.287 1.23 1.23 0 0 1 .3.921v2.426l.143.135.442.041v.3h-1.173l-.111-.487a3.81 3.81 0 0 1-.743.411 1.732 1.732 0 0 1-.633.133 1.05 1.05 0 0 1-.78-.295Zm1.568-.25a4.061 4.061 0 0 0 .588-.283v-1.478a4.876 4.876 0 0 0-1.382.532.751.751 0 0 0-.33.635.686.686 0 0 0 .182.5.653.653 0 0 0 .489.186 1.334 1.334 0 0 0 .452-.094Zm2.689.33a.9.9 0 0 1-.194-.665v-2.707h-.528v-.262l.553-.242.36-.782h.311v.893h1.277v.393h-1.272v2.211a1.232 1.232 0 0 0 .151.731.67.67 0 0 0 .545.186 2.506 2.506 0 0 0 .28-.016 2.542 2.542 0 0 0 .3-.053v.311a4.246 4.246 0 0 1-.565.137 3.217 3.217 0 0 1-.536.047.988.988 0 0 1-.678-.182Zm2.419-.34a2.13 2.13 0 0 1-.518-1.488 2.2 2.2 0 0 1 .548-1.538 1.8 1.8 0 0 1 1.394-.6 1.423 1.423 0 0 1 1.1.444 1.721 1.721 0 0 1 .407 1.21v.156a.812.812 0 0 1-.01.1h-2.714v.094a1.9 1.9 0 0 0 .381 1.251 1.264 1.264 0 0 0 1.028.461 1.786 1.786 0 0 0 .62-.119 3.454 3.454 0 0 0 .7-.368v.463a3.1 3.1 0 0 1-.774.373 2.661 2.661 0 0 1-.807.127 1.736 1.736 0 0 1-1.349-.571Zm2.18-2.193a1.193 1.193 0 0 0-.223-.778.793.793 0 0 0-.649-.27.948.948 0 0 0-.723.334 1.356 1.356 0 0 0-.342.845h1.937Zm4.075 2.72a3.055 3.055 0 0 1-.686-.2v-1.472h.5l.1.962.111.143a1.664 1.664 0 0 0 .422.143 2.547 2.547 0 0 0 .516.049 1.448 1.448 0 0 0 .927-.272.89.89 0 0 0 .342-.735q0-.643-1.2-1.155l-.2-.086a3.334 3.334 0 0 1-1.138-.694 1.227 1.227 0 0 1-.278-.833 1.446 1.446 0 0 1 .53-1.165 2.118 2.118 0 0 1 1.395-.443 4.265 4.265 0 0 1 .706.058 5.114 5.114 0 0 1 .723.178v1.3h-.438l-.127-.8-.123-.139a1.287 1.287 0 0 0-.348-.133 1.839 1.839 0 0 0-.409-.043 1.208 1.208 0 0 0-.831.272.938.938 0 0 0-.307.739.779.779 0 0 0 .215.563 3.23 3.23 0 0 0 .96.538l.209.082a3.163 3.163 0 0 1 1.056.606 1.178 1.178 0 0 1 .276.414 1.371 1.371 0 0 1 .092.508 1.477 1.477 0 0 1-.594 1.222 2.487 2.487 0 0 1-1.576.465 4.658 4.658 0 0 1-.825-.07Zm4.052-.545a2.125 2.125 0 0 1-.547-1.511 2.135 2.135 0 0 1 .543-1.511 1.972 1.972 0 0 1 2.807 0 2.123 2.123 0 0 1 .549 1.509 2.118 2.118 0 0 1-.551 1.509 1.965 1.965 0 0 1-2.8 0Zm2.246-.246a2.221 2.221 0 0 0 .319-1.265 2.214 2.214 0 0 0-.321-1.261.988.988 0 0 0-1.687 0 2.234 2.234 0 0 0-.317 1.263 2.223 2.223 0 0 0 .319 1.263.99.99 0 0 0 1.687 0Zm1.371.757v-.3l.5-.041.143-.135v-5.129h-.647v-.261l1.019-.3h.319v5.691l.151.135.479.041v.3Zm2.957-.248a1.4 1.4 0 0 1-.289-.952v-2.341h-.6v-.263l.974-.311h.319v2.776a.976.976 0 0 0 .2.674.794.794 0 0 0 .614.215 1.9 1.9 0 0 0 .473-.061 2.689 2.689 0 0 0 .5-.188v-2.842h-.6v-.263l.974-.311h.319v3.64l.151.135.393.041v.3h-1.236v-.467a3.569 3.569 0 0 1-.727.418 1.687 1.687 0 0 1-.633.135 1.048 1.048 0 0 1-.833-.33Zm4.319.09a.9.9 0 0 1-.194-.665v-2.702h-.528v-.262l.552-.242.36-.782h.311v.893h1.277v.393h-1.277v2.211a1.232 1.232 0 0 0 .151.731.67.67 0 0 0 .545.186 2.506 2.506 0 0 0 .28-.016 2.542 2.542 0 0 0 .3-.053v.311a4.246 4.246 0 0 1-.565.137 3.217 3.217 0 0 1-.536.047.988.988 0 0 1-.678-.182Zm2.537-4.948a.459.459 0 0 1-.141-.34.471.471 0 0 1 .141-.346.487.487 0 0 1 .688 0 .472.472 0 0 1 .141.344.459.459 0 0 1-.141.34.474.474 0 0 1-.346.139.469.469 0 0 1-.342-.139Zm-.653 5.11v-.3l.442-.041.143-.135v-3.037h-.585v-.257l.962-.3h.328v3.591l.143.135.45.041v.3Zm2.63-.512a2.125 2.125 0 0 1-.547-1.511 2.135 2.135 0 0 1 .543-1.511 1.972 1.972 0 0 1 2.807 0 2.123 2.123 0 0 1 .549 1.509 2.118 2.118 0 0 1-.551 1.509 1.965 1.965 0 0 1-2.8 0Zm2.246-.246a2.221 2.221 0 0 0 .319-1.265 2.214 2.214 0 0 0-.321-1.261.988.988 0 0 0-1.687 0 2.234 2.234 0 0 0-.317 1.263 2.223 2.223 0 0 0 .319 1.263.99.99 0 0 0 1.687 0Zm1.387.757v-.3l.454-.041.143-.135v-3.036h-.6v-.257l.974-.3h.319v.459a6.219 6.219 0 0 1 .811-.391 1.6 1.6 0 0 1 .54-.113 1.063 1.063 0 0 1 .839.328 1.388 1.388 0 0 1 .291.95v2.358l.143.135.45.041v.3h-1.831v-.3l.4-.041.143-.135v-2.219a.931.931 0 0 0-.193-.672.9.9 0 0 0-.653-.2 1.567 1.567 0 0 0-.434.068 2.831 2.831 0 0 0-.5.207v2.816l.143.135.4.041v.3Z"/>
    <path fill="#a4a4a4" fill-rule="evenodd" d="M0 0h34.939v34.939H0Zm26 8.935H8.929v17.07l-.006.005h17.089V8.929Z"/>
</svg>
