<?xml version="1.0" standalone="no"?>
<!DOCTYPE svg PUBLIC "-//W3C//DTD SVG 20010904//EN"
 "http://www.w3.org/TR/2001/REC-SVG-20010904/DTD/svg10.dtd">
<svg version="1.0" xmlns="http://www.w3.org/2000/svg"
 width="700.000000pt" height="700.000000pt" viewBox="0 0 700.000000 700.000000"
 preserveAspectRatio="xMidYMid meet">
<metadata>
Created by potrace 1.14, written by Peter Selinger 2001-2017
</metadata>
<g transform="translate(0.000000,700.000000) scale(0.100000,-0.100000)"
fill="#000000" stroke="none">
<path d="M5487 6994 c-1 -1 -42 -4 -92 -8 -134 -9 -179 -15 -305 -43 -119 -26
-312 -86 -391 -121 -24 -10 -51 -22 -59 -25 -33 -12 41 -6 147 13 169 29 231
34 438 35 524 1 834 -98 1083 -347 121 -120 201 -261 255 -448 35 -121 38
-143 42 -355 3 -171 -1 -242 -19 -342 -3 -18 -8 -48 -11 -65 -3 -18 -15 -78
-27 -133 -12 -55 -22 -112 -22 -127 -1 -14 -4 -24 -8 -22 -3 2 -10 -10 -14
-28 -5 -27 -58 -196 -80 -258 -3 -8 -24 31 -48 91 -73 179 -141 307 -272 504
-85 129 -135 195 -246 330 -85 102 -318 323 -441 418 -110 85 -311 227 -323
227 -2 0 -38 21 -81 46 -200 118 -538 257 -753 309 -72 17 -192 44 -220 49
-19 3 -44 8 -55 10 -11 2 -42 7 -68 10 -27 4 -58 9 -70 12 -103 19 -539 26
-717 11 -178 -16 -426 -64 -584 -114 -45 -14 -85 -26 -91 -28 -110 -22 -459
-177 -630 -278 -336 -200 -618 -443 -880 -758 -80 -96 -210 -286 -271 -394
-21 -38 -44 -79 -51 -90 -38 -65 -102 -209 -96 -219 3 -6 2 -8 -2 -3 -14 12
-112 -236 -164 -419 -25 -84 -68 -275 -75 -324 -2 -19 -7 -51 -10 -70 -23
-129 -31 -246 -31 -480 0 -241 8 -375 31 -500 3 -19 8 -46 10 -60 3 -14 11
-56 20 -95 8 -38 16 -80 19 -92 19 -105 98 -343 171 -513 117 -273 265 -519
459 -760 88 -110 107 -130 117 -124 5 3 7 1 6 -4 -4 -13 119 -141 228 -239
162 -147 362 -290 561 -402 101 -57 316 -161 375 -182 20 -7 35 -16 32 -21 -6
-10 -231 -80 -359 -112 -99 -25 -193 -43 -270 -52 -22 -2 -49 -6 -60 -9 -113
-24 -416 -25 -525 -1 -14 3 -36 8 -50 11 -117 23 -333 119 -431 191 -62 45
-177 168 -228 243 -90 133 -163 315 -186 465 -3 21 -7 48 -10 60 -31 138 -36
512 -10 679 2 12 6 54 9 92 6 66 5 68 -8 39 -29 -66 -96 -308 -112 -409 -25
-161 -32 -258 -29 -415 2 -96 6 -190 9 -208 36 -223 108 -406 227 -577 112
-162 272 -296 475 -399 94 -48 272 -110 345 -121 24 -4 46 -8 49 -10 3 -1 32
-6 65 -9 33 -4 80 -10 105 -13 70 -8 355 -10 450 -2 99 8 206 19 235 25 11 3
36 7 55 10 169 27 543 138 770 229 488 195 870 403 1295 703 55 39 105 74 110
79 6 5 35 26 65 48 93 66 139 108 133 118 -3 6 -1 7 5 3 6 -4 19 0 29 8 10 8
58 46 107 85 96 76 200 165 258 222 21 20 59 54 85 75 56 45 458 449 541 543
32 35 66 74 77 87 11 12 34 37 50 55 17 19 59 70 95 114 36 44 72 87 80 95 9
8 22 24 30 36 8 12 58 78 110 147 52 69 102 135 110 147 8 12 22 32 31 44 19
25 162 238 213 317 178 275 405 719 516 1009 113 293 194 585 234 840 25 153
31 243 31 440 0 107 -6 238 -13 290 -60 428 -255 773 -557 982 -230 159 -460
224 -823 232 -62 1 -114 1 -115 0z m-1866 -1858 c371 -50 685 -201 934 -450
164 -164 294 -363 368 -561 l15 -40 601 0 c331 0 601 0 601 -1 0 -8 -93 -172
-163 -289 -78 -131 -287 -452 -317 -488 -6 -6 -54 -70 -107 -142 -52 -71 -97
-131 -98 -133 -2 -2 -113 -3 -247 -2 -183 0 -248 -3 -260 -12 -9 -7 -35 -55
-57 -106 -255 -582 -841 -958 -1476 -946 -305 6 -547 74 -800 227 -243 147
-405 314 -572 592 -65 107 -135 297 -169 460 -13 59 -26 177 -27 246 -1 45 -6
79 -12 79 -6 0 -6 3 0 8 6 4 11 14 11 22 0 33 14 197 20 225 63 342 223 639
471 879 72 69 176 156 187 156 3 0 31 17 63 38 184 122 422 208 651 235 107
13 297 14 383 3z"/>
<path d="M6375 2973 c-116 -173 -299 -426 -392 -543 -230 -290 -389 -468 -672
-751 -326 -325 -496 -473 -881 -766 -214 -162 -389 -281 -599 -405 -102 -61
-195 -119 -206 -130 -20 -19 -20 -19 5 -14 14 3 65 8 115 11 49 3 98 8 110 10
11 2 43 7 70 10 28 3 59 8 70 10 11 3 31 7 45 9 14 3 36 8 50 11 14 3 39 8 55
11 17 3 84 20 150 39 436 123 798 310 1165 603 106 85 347 321 432 423 203
246 389 557 507 849 23 58 46 114 51 125 26 58 110 360 125 445 17 101 17 97
-16 104 -17 3 -57 6 -89 6 l-57 0 -38 -57z"/>
</g>
</svg>
