<svg xmlns="http://www.w3.org/2000/svg">
  <path class="stars"
        d="M16.193.157c-.117.129-.142.353-.142 1.245v1.087h-1.11c-1.099 0-1.111.002-1.289.228-.115.147-.16.292-.126.408.102.347.273.394 1.425.394h1.1v1.156c0 1.055.014 1.163.166 1.244.246.132.415.109.606-.082.154-.154.172-.286.172-1.245V3.519h1.054c1.196 0 1.435-.086 1.435-.515 0-.429-.239-.515-1.435-.515h-1.054V1.416c0-.958-.018-1.091-.172-1.244-.213-.214-.445-.22-.63-.015m21.973 3.004c-.116.129-.142.353-.142 1.245v1.087H36.97c-1.195 0-1.435.086-1.435.515 0 .429.24.515 1.435.515h1.054v1.103c0 .959.021 1.121.157 1.244.206.187.469.181.645-.014.117-.129.142-.353.142-1.245V6.523h1.054c1.196 0 1.435-.086 1.435-.515 0-.429-.239-.515-1.435-.515h-1.054V4.391c0-.959-.02-1.121-.157-1.245-.206-.186-.468-.18-.645.015m9.948 15.055c-.103.147-.133.429-.133 1.244v1.054h-1.073c-.959 0-1.091.018-1.245.172-.176.176-.217.399-.106.566.15.224.482.292 1.431.292h.993v1.057c0 1.141.05 1.297.443 1.392.168.041.276.008.408-.124.162-.162.179-.279.179-1.245v-1.066l1.123-.028c.993-.025 1.137-.048 1.244-.195.167-.229.153-.509-.035-.679-.129-.116-.353-.142-1.245-.142h-1.087V19.46c0-1.195-.086-1.435-.515-1.435a.455.455 0 0 0-.382.191"
        fill-rule="evenodd"/>
  <path
    class="handshake"
    d="M32.484 14.673c-4.22 3.183-4.182 3.151-4.297 3.581-.051.191-.16.272-.541.405-.762.266-1.503.176-3.315-.403-.839-.268-1.74-.532-2.002-.586-.633-.132-1.272-.042-1.937.273-.532.251-.556.254-.997.133-.797-.219-1.067-.232-1.991-.093a50.646 50.646 0 0 1-4.41.443l-1.138.058-.112-.263c-.081-.191-1.075-.989-3.608-2.898-3.083-2.325-3.532-2.635-3.811-2.635-.355 0-.741.195-.905.458-.06.096-.855 3.348-1.766 7.226-1.789 7.617-1.747 7.359-1.28 7.777.107.095.943.583 1.857 1.083 1.946 1.064 2.182 1.116 2.729.598.297-.282.311-.286.249-.079-.036.12-.085.501-.109.846-.055.796.122 1.36.593 1.896.359.407 1.109.845 1.449.845.148 0 .209.067.256.285.23 1.069 1.277 2.004 2.389 2.136.399.047.426.069.665.525.505.964 1.457 1.486 2.549 1.397l.619-.05.277.392c.31.44.93.872 1.456 1.014.519.139 1.424.06 1.885-.165.216-.105.597-.37.845-.588.249-.218.492-.396.542-.396.049 0 .654.315 1.343.701 1.468.819 1.979.969 2.761.805.686-.143 1.391-.637 1.728-1.211l.262-.448.656-.04c1.108-.068 1.982-.662 2.377-1.615.181-.436.21-.463.617-.55 1.066-.229 1.814-.96 2.085-2.04.092-.364.13-.405.473-.5.875-.245 1.799-1.363 1.799-2.177 0-.291.082-.404.86-1.179l.86-.856.246.372.247.373-.298.253-.297.253.876-.032.876-.032 1.662-.907c1.813-.99 2.116-1.214 2.189-1.62.033-.181-.483-2.532-1.574-7.181-.893-3.802-1.669-7.026-1.725-7.164-.133-.326-.556-.58-.97-.58-.295 0-.631.227-3.194 2.16m3.958 6.396c.699 2.998 1.271 5.499 1.271 5.558 0 .129-1.475.954-1.585.886-.041-.025-.179-.232-.307-.458a12.853 12.853 0 0 0-.47-.761c-.746-1.092-4.731-7.507-4.708-7.577.015-.047 1.012-.83 2.215-1.74 1.802-1.365 2.197-1.63 2.249-1.507.035.082.635 2.602 1.335 5.599M7.282 17.27l2.164 1.636-.37.593c-2.245 3.599-5.194 8.237-5.237 8.238-.05.001-1.478-.767-1.55-.834-.017-.015.57-2.589 1.305-5.72.916-3.905 1.365-5.67 1.43-5.62l2.258 1.707m16.158 2.85c.752.237 1.617.495 1.923.573 1.023.261 2.463.153 3.446-.258l.31-.129 2.104 3.344 2.105 3.344-.755.7c-.415.385-.784.7-.821.7-.037 0-2.028-1.559-4.425-3.464-2.397-1.906-4.444-3.51-4.549-3.566-.311-.165-.701-.117-1.233.15-.276.138-.816.364-1.201.502-.617.222-.819.251-1.706.251-.721 0-1.093-.039-1.312-.136l-.305-.136 1.487-.773c.817-.425 1.815-.944 2.216-1.154.461-.239.845-.38 1.04-.38.171 0 .925.194 1.676.432m-7.721.207c-.96.615-1.236 1.035-1.174 1.786.06.728.384 1.123 1.293 1.58.901.452 1.691.629 2.818.631a7.734 7.734 0 0 0 2.944-.6l.586-.249 4.154 3.305c2.337 1.858 4.206 3.408 4.273 3.541.106.211.1.263-.052.468-.384.516-.412.501-4.14-2.124-2.171-1.529-3.526-2.429-3.712-2.464-.827-.155-1.479.796-1.045 1.524.166.277-.171.027 3.603 2.678 2.248 1.58 3.099 2.224 3.138 2.377.111.443-.44.866-.87.668-.105-.048-1.49-.991-3.078-2.094a450.364 450.364 0 0 0-3.003-2.077c-.063-.038-.245-.069-.403-.069-.814 0-1.337.795-.978 1.488.077.15 1.142.944 2.898 2.161 1.526 1.059 2.804 2.002 2.839 2.097.146.39-.238.821-.624.698-.108-.034-1.227-.765-2.485-1.624-2.807-1.917-3.235-2.177-3.577-2.177-.366 0-.783.273-.919.602-.145.348-.324.349-.4.001-.211-.958-.871-1.657-1.829-1.936-.408-.119-.436-.147-.611-.622-.263-.714-.727-1.22-1.424-1.553-.547-.261-.627-.275-1.307-.233l-.724.046-.234-.338c-.287-.414-.686-.726-1.237-.965-.343-.148-.549-.175-1.12-.145-.835.044-1.144.186-2.018.926-.614.519-.62.522-.825.367l-.206-.155 1.064-1.695c.586-.932 1.61-2.561 2.277-3.619l1.213-1.925 1.741-.108a70.905 70.905 0 0 0 2.442-.185c.385-.043.739-.081.787-.084.048-.004.014.04-.075.097M9.86 28.891c.224.21.261.492.093.697-.06.073-.532.496-1.049.941-.814.699-.977.804-1.216.78-.344-.034-.647-.4-.559-.675.033-.104.515-.581 1.072-1.061 1.091-.939 1.296-1.023 1.659-.682m3.4 1.424c.433.433.367.529-1.42 2.062-1.631 1.4-1.812 1.493-2.198 1.133a.646.646 0 0 1-.192-.429c0-.214.191-.417 1.291-1.377 1.784-1.557 1.845-1.603 2.089-1.603.118 0 .312.096.43.214m2.347 2.28c.183.183.256.452.166.612-.109.194-2.652 2.387-2.82 2.431-.38.099-.884-.4-.737-.729.043-.095.669-.682 1.391-1.305 1.074-.927 1.362-1.133 1.59-1.136.153-.003.338.054.41.127m2.331 2.318c.339.34.237.553-.635 1.318-.983.864-1.107.931-1.458.785-.289-.12-.403-.349-.318-.643.03-.105.437-.515.905-.91.915-.775 1.183-.873 1.506-.55m3.631.853c.944.646 1.143.82 1.166 1.021a.514.514 0 0 1-.522.576c-.141 0-.659-.232-1.212-.544l-.964-.544.066-.309a4.22 4.22 0 0 0 .066-.716c0-.483-.127-.53 1.4.516"
        fill-rule="evenodd"/>
</svg>
