<svg xmlns="http://www.w3.org/2000/svg">
  <path class="stars"
        d="M16.193.157c-.117.129-.142.353-.142 1.245v1.087h-1.11c-1.099 0-1.111.002-1.289.228-.115.147-.16.292-.126.408.102.347.273.394 1.425.394h1.1v1.156c0 1.055.014 1.163.166 1.244.246.132.415.109.606-.082.154-.154.172-.286.172-1.245V3.519h1.054c1.196 0 1.435-.086 1.435-.515 0-.429-.239-.515-1.435-.515h-1.054V1.416c0-.958-.018-1.091-.172-1.244-.213-.214-.445-.22-.63-.015m21.973 3.004c-.116.129-.142.353-.142 1.245v1.087H36.97c-1.195 0-1.435.086-1.435.515 0 .429.24.515 1.435.515h1.054v1.103c0 .959.021 1.121.157 1.244.206.187.469.181.645-.014.117-.129.142-.353.142-1.245V6.523h1.054c1.196 0 1.435-.086 1.435-.515 0-.429-.239-.515-1.435-.515h-1.054V4.391c0-.959-.02-1.121-.157-1.245-.206-.186-.468-.18-.645.015m9.948 15.055c-.103.147-.133.429-.133 1.244v1.054h-1.073c-.959 0-1.091.018-1.245.172-.176.176-.217.399-.106.566.15.224.482.292 1.431.292h.993v1.057c0 1.141.05 1.297.443 1.392.168.041.276.008.408-.124.162-.162.179-.279.179-1.245v-1.066l1.123-.028c.993-.025 1.137-.048 1.244-.195.167-.229.153-.509-.035-.679-.129-.116-.353-.142-1.245-.142h-1.087V19.46c0-1.195-.086-1.435-.515-1.435a.455.455 0 0 0-.382.191"
        fill-rule="evenodd"/>
  <path d="M17.729 6.568c-.132.039-.317.14-.411.224-.358.318-.4.592-.4 2.593 0 2.124.046 2.359.52 2.649.338.206.662.216 1.049.033.51-.243.535-.368.535-2.756V7.167l-.214-.254c-.195-.231-.333-.307-.712-.389a.975.975 0 0 0-.367.044m-12.278 5.01c-.468.254-.622.934-.321 1.416.09.144.808.878 1.597 1.63l1.434 1.368h.416c.497 0 .868-.262 1.019-.719.171-.519.026-.734-1.585-2.336l-1.499-1.49-.415.003c-.229.002-.519.06-.646.128M28.06 12.85c-.811.772-1.529 1.509-1.595 1.637-.355.687.15 1.505.929 1.505.169 0 .391-.042.492-.094.362-.183 3.001-2.884 3.094-3.167.12-.364-.021-.79-.355-1.071-.197-.166-.347-.213-.672-.213h-.418L28.06 12.85m-11.311-.306c-4.371.443-8.228 3.33-9.88 7.397-.708 1.742-.981 4.132-.688 6.024a12.066 12.066 0 0 0 1.105 3.421c1.079 2.149 2.522 3.688 4.677 4.988.633.382.983.736 1.186 1.202.072.164.117 1.099.147 3.057.043 2.748.049 2.829.241 3.198.283.544.651.895 1.165 1.107.421.175.448.204.452.486.009.718.501 1.464 1.193 1.809.408.204.51.217 1.66.215 1.014-.001 1.283-.029 1.562-.158a2.301 2.301 0 0 0 1.278-1.779c.045-.375.074-.42.326-.504.498-.164 1.017-.635 1.272-1.154l.238-.485.042-2.778.042-2.777.258-.463c.231-.413.381-.544 1.389-1.21 2.841-1.877 4.655-4.495 5.304-7.654.198-.965.338-3.845.186-3.845-.046 0-.127-.261-.18-.579-.285-1.724-1.295-3.866-2.485-5.268-2.619-3.086-6.491-4.655-10.49-4.25m3.199 2.224c2.782.585 5.111 2.226 6.512 4.588a9.562 9.562 0 0 1 .599 8.598c-.292.696-1.086 1.978-1.486 2.398l-.249.262-1.068-.483c-.588-.266-1.447-.651-1.91-.855l-.841-.372-.026-.352c-.024-.32.01-.39.362-.754.98-1.015 1.466-2.327 1.471-3.971.002-.438.04-.589.205-.805.301-.395.414-.915.35-1.618-.114-1.277-.595-2.272-1.556-3.225-.723-.716-1.527-1.185-2.372-1.385-.734-.173-3.116-.174-3.847-.001-1.463.345-2.771 1.416-3.469 2.84-.404.825-.525 1.533-.489 2.871.027 1.018.036 1.061.289 1.419.192.273.276.507.32.889.116 1.031.628 2.138 1.365 2.952.444.491.559.81.388 1.075-.034.052-.923.474-1.976.936l-1.915.841-.469-.622c-1.518-2.018-2.205-4.535-1.882-6.905.303-2.235 1.183-4.017 2.761-5.593 1.574-1.572 3.542-2.556 5.692-2.846.789-.107 2.461-.046 3.241.118m.002 4.272c.882.433 1.627 1.396 1.742 2.251l.043.323-.724.06c-1.554.13-3.021-.27-4.002-1.089-.61-.51-1.153-.51-1.6-.001-.276.315-.35.804-.172 1.137.079.146.058.162-.214.162-.166 0-.414.058-.551.129l-.248.128v-.279c0-.821.509-1.871 1.159-2.392.762-.611 1.124-.7 2.755-.677 1.275.018 1.371.031 1.812.248m-2.497 4.231c.779.293 1.732.467 2.77.505.507.018.939.051.96.072.089.089-.143 1.264-.33 1.673-.248.541-.869 1.18-1.418 1.458a4.25 4.25 0 0 1-.987.306c-1.686.289-3.311-.937-3.588-2.708-.045-.282-.027-.307.403-.577.545-.342.752-.664.742-1.155l-.007-.366.464.297c.256.163.702.386.991.495M.779 23.228c-.332.079-.499.211-.658.518-.25.484-.064 1.133.4 1.39.144.08.768.109 2.401.111l2.207.003.297-.297c.26-.261.297-.35.297-.714 0-.523-.293-.895-.799-1.011-.402-.093-3.754-.093-4.145 0m30.258-.022c-.126.019-.343.148-.48.285-.461.461-.42 1.115.097 1.55l.248.209H35.337l.257-.216c.646-.544.414-1.576-.406-1.804-.285-.079-3.659-.099-4.151-.024m-13.025 6.21c.393 0 .871-.031 1.062-.068.333-.066.35-.06.407.167.032.13.189.417.348.639l.289.402-.2.076c-.719.273-2.431.339-3.326.128-.296-.069-.569-.146-.609-.171-.04-.025.054-.23.21-.455.155-.226.307-.509.337-.628.051-.205.075-.214.41-.154.196.036.678.064 1.072.064m-4.121 2.604c1.341.712 2.833 1.025 4.533.95 1.318-.059 2.404-.325 3.487-.856l.782-.382.437.184c.24.102.436.206.435.231-.001.026-.288.217-.638.425-1.167.695-2.017 1.832-2.234 2.988-.052.278-.107.553-.123.611-.022.081-.613.105-2.598.105h-2.57v-.232a3.704 3.704 0 0 0-.122-.683c-.302-1.135-1.014-2.049-2.141-2.746-.374-.232-.68-.445-.681-.474-.001-.044.706-.382.843-.403.025-.004.29.123.59.282m-5.626.496c-.306.108-2.886 2.536-3.143 2.957-.417.685.084 1.56.893 1.56.17 0 .391-.042.492-.093.102-.051.82-.723 1.596-1.494 1.586-1.574 1.714-1.783 1.433-2.347-.263-.53-.767-.761-1.271-.583m18.927-.048a1.011 1.011 0 0 0-.701 1.503c.081.143.8.891 1.596 1.661l1.449 1.401h.413c.486 0 .813-.213.995-.649.249-.595.142-.766-1.465-2.335-.807-.789-1.512-1.458-1.565-1.486-.165-.088-.508-.133-.722-.095m-6.655 6.074c0 .089-.112.273-.249.41-.443.444-.445 1.068-.003 1.491.277.265.325.5.119.579-.074.028-1.186.051-2.473.051-1.855 0-2.359-.023-2.433-.113-.052-.062-.069-.137-.039-.168.031-.03.849-.055 1.818-.055h1.762l.279-.28c.37-.37.45-.788.233-1.213-.285-.558-.5-.611-2.444-.611-1.459 0-1.705-.019-1.705-.127 0-.109.342-.126 2.568-.126 2.476 0 2.567.006 2.567.162m-1.81 4.72c0 .102-.135.126-.714.126-.62 0-.718-.02-.743-.151-.027-.137.038-.148.714-.126.594.02.743.05.743.151"
        fill-rule="evenodd"/>
</svg>


